<svg width="296" height="81" viewBox="0 0 296 81" fill="none" xmlns="http://www.w3.org/2000/svg">
<path d="M1.97222 70.0694C2.42593 69.5509 2.97685 69.3241 3.625 69.3889C4.27315 69.4537 4.66204 69.8426 4.79167 70.5556C4.9213 71.0741 4.88889 71.7222 4.69444 72.5C4.5 73.213 4.17593 73.7315 3.72222 74.0556C2.81481 74.3796 2.26389 74.5417 2.06944 74.5417C1.93981 74.4769 1.74537 74.3796 1.48611 74.25C1.03241 73.4074 0.902778 72.7917 1.09722 72.4028C1.29167 71.9491 1.4537 71.463 1.58333 70.9444L1.97222 70.0694ZM4.88889 17.9583C4.75926 18.2176 4.62963 18.4769 4.5 18.7361C4.37037 18.9306 4.14352 19.0926 3.81944 19.2222C3.49537 19.1574 3.13889 19.0926 2.75 19.0278C2.36111 18.8981 2.10185 18.6713 1.97222 18.3472C2.10185 18.0231 2.13426 17.7315 2.06944 17.4722C2.00463 17.213 2.06944 16.9537 2.26389 16.6944C2.13426 16.1111 2.3287 15.7546 2.84722 15.625C3.43056 15.4954 3.88426 15.5926 4.20833 15.9167C4.40278 16.1759 4.59722 16.4676 4.79167 16.7917C4.98611 17.0509 5.01852 17.4398 4.88889 17.9583ZM21.6111 3.86111C21.287 3.86111 21.125 3.60185 21.125 3.08333C21.125 2.56481 21.2546 2.27315 21.5139 2.20833C21.6435 1.43055 22.0648 1.00926 22.7778 0.944443C23.4907 0.944443 24.0093 1.13889 24.3333 1.52778C24.6574 1.85185 24.8519 2.27315 24.9167 2.79167C24.9815 3.31018 24.8843 3.8287 24.625 4.34722C24.4306 4.80092 24.1065 5.09259 23.6528 5.22222C23.2639 5.35185 22.9074 5.31944 22.5833 5.125C22.3241 4.93055 22.0324 4.6713 21.7083 4.34722L21.6111 3.86111ZM28.7083 3.86111C28.3843 4.12037 27.9954 4.21759 27.5417 4.15278C27.1528 4.02315 26.8611 3.7963 26.6667 3.47222C26.6667 2.43518 27.0231 1.91667 27.7361 1.91667C28.0602 2.0463 28.3194 2.27315 28.5139 2.59722C28.7731 2.9213 28.838 3.34259 28.7083 3.86111ZM30.4583 23.5C31.1713 23.8889 31.4954 24.537 31.4306 25.4444C31.4306 26.3519 31.0741 27 30.3611 27.3889C29.5833 27.3241 28.9676 27.0972 28.5139 26.7083C28.0602 26.3194 27.6713 25.8981 27.3472 25.4444C27.412 24.537 27.5741 24.0185 27.8333 23.8889C28.1574 23.6944 28.5463 23.5324 29 23.4028C29.3241 23.338 29.5509 23.3056 29.6806 23.3056C29.875 23.2407 30.1343 23.3056 30.4583 23.5ZM24.7222 29.0417C24.6574 28.2639 24.9167 27.6806 25.5 27.2917C26.1481 26.838 26.7639 26.6759 27.3472 26.8056C27.8657 27.1944 28.0926 27.7454 28.0278 28.4583C27.5741 29.4306 27.0556 29.9815 26.4722 30.1111C25.9537 30.2407 25.5324 30.1435 25.2083 29.8194L24.7222 29.0417ZM70.3194 47.0278C71.0324 46.7685 71.7778 46.8657 72.5556 47.3194C73.3333 47.7731 73.5602 48.4861 73.2361 49.4583C72.7824 50.2361 72.4907 50.7222 72.3611 50.9167C72.2963 51.1111 72.1019 51.2407 71.7778 51.3056C71.4537 51.1759 71.0648 51.0787 70.6111 51.0139C70.2222 50.9491 70.0278 50.6574 70.0278 50.1389C69.963 49.8148 69.8657 49.4907 69.7361 49.1667C69.6713 48.8426 69.7685 48.6157 70.0278 48.4861C69.8981 48.2269 69.8657 48 69.9306 47.8056C70.0602 47.5463 70.1898 47.287 70.3194 47.0278ZM57.0972 28.0694C56.125 28.3935 55.3796 28.2315 54.8611 27.5833C54.3426 26.8704 54.1806 26.0602 54.375 25.1528C54.5694 24.2454 54.7963 23.7269 55.0556 23.5972C55.3796 23.4676 55.5741 23.2083 55.6389 22.8194C56.5463 22.4954 57.2917 22.625 57.875 23.2083C58.5231 23.7269 58.75 24.4722 58.5556 25.4444C58.4907 25.5741 58.3935 25.7361 58.2639 25.9306C58.1991 26.125 58.1343 26.3519 58.0694 26.6111C58.0046 26.8704 57.9398 27.0972 57.875 27.2917C57.875 27.4861 57.8102 27.6481 57.6806 27.7778L57.0972 28.0694ZM28.7083 6.77778C28.838 6.77778 29.0324 6.81018 29.2917 6.875C29.5509 6.875 29.713 6.84259 29.7778 6.77778C30.4907 7.03704 31.2037 7.23148 31.9167 7.36111C32.6296 7.42592 33.2454 7.71759 33.7639 8.23611C34.2176 8.23611 34.6713 8.30092 35.125 8.43055C35.5787 8.56018 36.0648 8.72222 36.5833 8.91667C37.037 9.62963 37.4907 10.4398 37.9444 11.3472C38.3981 12.1898 38.6898 13.0324 38.8194 13.875C39.0787 14.1343 39.3056 14.4259 39.5 14.75C39.6944 15.0741 39.9213 15.3981 40.1806 15.7222C40.5046 16.2407 40.9583 16.5972 41.5417 16.7917C42.1898 16.9861 42.8056 16.8241 43.3889 16.3056C43.6481 16.1759 43.9074 15.9491 44.1667 15.625C44.4259 15.2361 44.7176 14.9769 45.0417 14.8472C45.4954 14.3935 45.7546 14.1667 45.8194 14.1667C45.8843 14.1019 45.9167 14.037 45.9167 13.9722C46.1111 13.5833 46.3704 13.2917 46.6944 13.0972C47.0833 12.1898 47.3426 11.6389 47.4722 11.4444C47.6019 11.25 47.6991 11.0231 47.7639 10.7639C48.4769 10.1157 49.1574 9.5 49.8056 8.91667C50.4537 8.26852 51.037 7.58796 51.5556 6.875C52.3333 6.35648 52.9167 6 53.3056 5.80555C53.7593 5.5463 54.213 5.48148 54.6667 5.61111C55.1204 5.22222 55.5741 5.09259 56.0278 5.22222C56.8056 5.09259 57.5185 4.89815 58.1667 4.63889C58.8148 4.37963 59.463 4.41204 60.1111 4.73611C61.2778 4.99537 62.2824 5.09259 63.125 5.02778C64.0324 4.96296 64.8426 5.125 65.5556 5.51389C66.463 6.03241 67.0463 6.48611 67.3056 6.875C67.5648 7.19907 67.8565 7.52315 68.1806 7.84722C68.6343 8.23611 68.9259 8.68981 69.0556 9.20833C69.1852 9.72685 69.4769 10.1157 69.9306 10.375C69.8657 10.6343 69.8981 10.8611 70.0278 11.0556C70.1574 11.25 70.1898 11.4444 70.125 11.6389C70.3194 12.0926 70.5787 12.5139 70.9028 12.9028C71.2269 13.2269 71.4213 13.6481 71.4861 14.1667C71.5509 14.6852 71.5185 15.2037 71.3889 15.7222C71.3241 16.1759 71.3241 16.6296 71.3889 17.0833C71.8426 18.1852 71.875 19.287 71.4861 20.3889C71.162 21.4907 71 22.5602 71 23.5972C70.9352 24.8287 70.7083 25.8981 70.3194 26.8056C69.9306 27.713 69.6713 28.6204 69.5417 29.5278C69.412 29.9815 69.3796 30.4352 69.4444 30.8889C69.5093 31.2778 69.3472 31.6343 68.9583 31.9583C69.0231 32.1528 68.9907 32.412 68.8611 32.7361C68.7963 32.9954 68.6991 33.1898 68.5694 33.3194C68.5694 34.2917 68.4074 34.9722 68.0833 35.3611C67.8241 35.6852 67.6944 36.1389 67.6944 36.7222C67.5 37.3056 67.5 37.7917 67.6944 38.1806C67.9537 38.5694 68.0833 38.9907 68.0833 39.4444C68.1481 39.7685 68.1157 40.2222 67.9861 40.8056C67.9213 41.3241 67.9537 41.7454 68.0833 42.0694C68.1481 42.3287 68.2454 42.588 68.375 42.8472C68.5046 43.0417 68.537 43.3333 68.4722 43.7222C68.4074 44.0463 68.3102 44.338 68.1806 44.5972C68.1157 44.8565 68.0833 45.2454 68.0833 45.7639C68.0833 46.0231 68.0833 46.3148 68.0833 46.6389C68.0833 46.8981 68.0509 47.1574 67.9861 47.4167C67.8565 48.3241 67.6296 48.8426 67.3056 48.9722C67.3056 49.3611 67.2407 49.75 67.1111 50.1389C67.0463 50.5278 66.9491 50.8843 66.8194 51.2083C66.9491 51.4676 67.1111 51.6296 67.3056 51.6944C67.5648 51.7593 67.7593 51.9213 67.8889 52.1806C68.213 52.1806 68.5046 52.375 68.7639 52.7639C69.0231 53.088 69.1528 53.4769 69.1528 53.9306C69.1528 54.2546 69.0556 54.5463 68.8611 54.8056C68.7315 55 68.6343 55.2593 68.5694 55.5833C68.4398 56.2963 68.4722 56.9444 68.6667 57.5278C68.9259 58.0463 69.2176 58.5 69.5417 58.8889C69.6713 60.0556 69.8657 60.8009 70.125 61.125C70.4491 61.4491 70.8056 61.8056 71.1944 62.1944C71.5185 62.6481 71.8102 63.1343 72.0694 63.6528C72.3287 64.1065 72.6204 64.5278 72.9444 64.9167C73.2037 65.4352 73.3981 65.9213 73.5278 66.375C73.6574 66.8287 73.7222 67.3796 73.7222 68.0278C73.1389 69.1944 72.75 70.1019 72.5556 70.75C72.4259 71.3981 72.1343 71.9815 71.6806 72.5C71.6157 72.8241 71.3889 73.1806 71 73.5694C70.4167 74.1528 69.8981 74.5093 69.4444 74.6389C69.0556 74.7037 68.7315 74.5741 68.4722 74.25C67.4352 74.1204 66.625 74.1852 66.0417 74.4444C65.5231 74.7037 64.9074 74.8657 64.1944 74.9306C62.8981 74.9306 62.0231 74.4444 61.5694 73.4722C61.1157 73.3426 60.7917 73.1157 60.5972 72.7917C60.4028 72.4028 60.1759 72.0463 59.9167 71.7222C59.5926 70.8796 59.3009 69.9398 59.0417 68.9028C58.7824 67.8657 58.6852 66.8935 58.75 65.9861C58.4259 65.4676 58.3611 64.9815 58.5556 64.5278C58.75 64.0741 58.8796 63.588 58.9444 63.0694C58.8796 62.2269 58.912 61.6759 59.0417 61.4167C59.1713 61.1574 59.0741 60.9306 58.75 60.7361C58.9444 60.5417 58.9769 60.3148 58.8472 60.0556C58.7176 59.7315 58.7176 59.5046 58.8472 59.375C58.6528 57.5602 58.4583 55.9074 58.2639 54.4167C58.1343 52.8611 58.1343 51.4676 58.2639 50.2361C58.588 49.5231 58.6528 48.7454 58.4583 47.9028C58.2639 46.9954 58.2639 46.1852 58.4583 45.4722C58.4583 44.6944 58.5231 44.2407 58.6528 44.1111C58.6528 43.0741 58.8796 42.1019 59.3333 41.1944C59.2685 40.4815 59.2037 39.8009 59.1389 39.1528C59.1389 38.4398 59.3009 37.9213 59.625 37.5972C59.625 37.1435 59.7546 36.7546 60.0139 36.4306C60.0787 35.8472 60.2083 35.3611 60.4028 34.9722C60.5972 34.5833 60.7269 34.0972 60.7917 33.5139C61.375 33.125 61.537 32.5093 61.2778 31.6667C61.0833 30.8241 60.9213 30.1435 60.7917 29.625C60.7917 29.3657 60.8241 29.1389 60.8889 28.9444C60.9537 28.6852 60.9861 28.3935 60.9861 28.0694C61.0509 27.6157 61.0509 27.1944 60.9861 26.8056C60.9861 26.4167 61.0185 26.0278 61.0833 25.6389C61.0833 25.1204 61.1481 24.6019 61.2778 24.0833C61.4074 23.5648 61.2778 23.1111 60.8889 22.7222C60.6944 21.8148 60.4028 21.1343 60.0139 20.6806C59.625 20.2269 59.2037 19.7407 58.75 19.2222C58.4907 18.5093 58.3611 17.9259 58.3611 17.4722C57.713 17.0185 56.9352 16.9537 56.0278 17.2778C55.7037 17.4074 55.2824 17.537 54.7639 17.6667C54.3102 17.7963 53.9861 17.9259 53.7917 18.0556C53.4028 18.3796 52.9491 18.7037 52.4306 19.0278C51.912 19.3519 51.4907 19.7731 51.1667 20.2917C50.8426 20.6806 50.5185 20.9722 50.1944 21.1667C49.8704 21.3611 49.6111 21.6204 49.4167 21.9444C49.287 22.2685 49.1898 22.5926 49.125 22.9167C49.125 23.1759 49.0278 23.4352 48.8333 23.6944C48.4444 24.6019 48.1852 25.4444 48.0556 26.2222C47.9259 26.9352 47.7963 27.713 47.6667 28.5556C47.537 29.0741 47.3426 29.6574 47.0833 30.3056C46.8241 30.8889 46.5972 31.5046 46.4028 32.1528C46.4676 32.8657 46.3704 33.5139 46.1111 34.0972C45.8519 34.6157 45.7546 35.1667 45.8194 35.75C45.8194 36.3333 45.8519 36.9815 45.9167 37.6944C46.0463 38.4074 46.0787 39.0556 46.0139 39.6389C46.1435 40.0926 46.1435 40.6435 46.0139 41.2917C45.9491 41.875 45.8194 42.3287 45.625 42.6528C45.6898 43.1713 45.625 43.7546 45.4306 44.4028C45.3009 44.9861 45.2037 45.537 45.1389 46.0556C44.8796 47.0278 44.912 48.0324 45.2361 49.0694C45.625 50.0417 45.7546 51.1111 45.625 52.2778C45.625 52.8611 45.6898 53.412 45.8194 53.9306C45.9491 54.3843 45.9815 54.8056 45.9167 55.1944C45.6574 55.6481 45.4954 56.1343 45.4306 56.6528C45.4306 57.1065 45.4954 57.6898 45.625 58.4028C45.6898 58.7917 45.8519 59.2454 46.1111 59.7639C46.3704 60.2176 46.4028 60.7037 46.2083 61.2222C46.338 61.7407 46.338 62.1944 46.2083 62.5833C46.1435 62.9074 46.1111 63.2315 46.1111 63.5556C46.2407 64.5926 46.2731 65.5648 46.2083 66.4722C46.2083 67.3796 46.1435 68.1898 46.0139 68.9028C45.9491 69.2269 45.8519 69.5509 45.7222 69.875C45.5926 70.1991 45.5278 70.5231 45.5278 70.8472C45.463 71.0417 45.463 71.2361 45.5278 71.4306C45.6574 71.5602 45.7222 71.7222 45.7222 71.9167C45.787 73.0185 45.463 73.9259 44.75 74.6389C43.9074 75.0926 43.162 75.5463 42.5139 76C41.9306 76.3889 41.25 76.5185 40.4722 76.3889C40.1481 76.5185 39.8241 76.5833 39.5 76.5833C39.2407 76.6481 38.9491 76.6806 38.625 76.6806C38.1713 76.4213 37.6852 76.2917 37.1667 76.2917C36.6481 76.2917 36.162 76.2269 35.7083 76.0972C34.9954 76.0324 34.5093 75.8056 34.25 75.4167C34.0556 75.0278 33.7315 74.7361 33.2778 74.5417C32.8889 74.2176 32.662 73.8935 32.5972 73.5694C32.5324 73.1806 32.4352 72.8889 32.3056 72.6944C32.2407 72.1759 32.2083 71.7222 32.2083 71.3333C32.2083 70.9444 32.0463 70.588 31.7222 70.2639C31.6574 69.9398 31.7222 69.6157 31.9167 69.2917C32.1759 68.9028 32.3056 68.5463 32.3056 68.2222C32.3704 68.0926 32.4028 67.8981 32.4028 67.6389C32.4676 67.3148 32.5648 67.088 32.6944 66.9583C32.5648 66.6991 32.5324 66.4722 32.5972 66.2778C32.662 66.0185 32.6944 65.7269 32.6944 65.4028C32.9537 64.8194 33.1806 64.3009 33.375 63.8472C33.5694 63.3287 33.7639 62.7778 33.9583 62.1944C34.088 61.7407 34.25 61.3194 34.4444 60.9306C34.7037 60.5417 34.8981 60.1852 35.0278 59.8611C35.287 59.2778 35.5139 58.8241 35.7083 58.5C35.5139 58.1759 35.4491 57.7222 35.5139 57.1389C35.5787 56.5556 35.4815 56.1019 35.2222 55.7778C35.2222 55.4537 35.2222 55.1296 35.2222 54.8056C35.2222 54.4167 35.287 54.0602 35.4167 53.7361C35.1574 53.5417 35.0602 53.3148 35.125 53.0556C35.1898 52.7315 35.1898 52.4398 35.125 52.1806C35.125 51.662 35.1898 51.1435 35.3194 50.625C35.5139 50.1065 35.5139 49.6528 35.3194 49.2639C35.3194 48.875 35.2546 48.4213 35.125 47.9028C35.0602 47.3194 35.1898 46.8657 35.5139 46.5417C35.3194 46.412 35.2546 46.1852 35.3194 45.8611C35.3843 45.4722 35.4815 45.213 35.6111 45.0833C35.3519 44.5648 35.287 44.2083 35.4167 44.0139C35.287 42.7824 35.2546 41.6481 35.3194 40.6111C35.4491 39.5741 35.5787 38.6019 35.7083 37.6944C35.5787 37.1759 35.5139 36.787 35.5139 36.5278C35.5787 36.2037 35.6759 35.9769 35.8056 35.8472C35.7407 35.588 35.6759 35.3935 35.6111 35.2639C35.6111 35.0694 35.6759 34.9074 35.8056 34.7778C35.7407 34.1944 35.7731 33.6759 35.9028 33.2222C36.0324 32.7037 36.162 32.25 36.2917 31.8611C36.4861 31.4074 36.6481 30.9861 36.7778 30.5972C36.9074 30.1435 36.9398 29.625 36.875 29.0417C36.6806 28.7176 36.5185 28.3287 36.3889 27.875C36.3241 27.4213 36.2269 26.9676 36.0972 26.5139C35.9676 26.1898 35.8056 25.9306 35.6111 25.7361C35.4167 25.4769 35.2546 25.2176 35.125 24.9583C35.0602 24.5694 34.8981 24.375 34.6389 24.375C34.4444 24.3102 34.412 24.1481 34.5417 23.8889C34.088 23.1759 33.7963 22.8194 33.6667 22.8194C33.3426 22.1065 32.9537 21.4907 32.5 20.9722C32.1111 20.4537 31.625 19.9352 31.0417 19.4167C30.5231 19.3519 29.8426 19.4167 29 19.6111C28.2222 19.7407 27.6713 19.9676 27.3472 20.2917C26.6991 20.875 25.9213 21.4907 25.0139 22.1389C24.1713 22.787 23.3935 23.4028 22.6806 23.9861C22.5509 24.2454 22.4213 24.4722 22.2917 24.6667C22.162 24.8611 21.9676 25.0231 21.7083 25.1528C21.5139 25.5417 21.2546 25.8981 20.9306 26.2222C20.6065 26.4815 20.3796 26.838 20.25 27.2917C19.7315 28.0694 19.4074 28.8148 19.2778 29.5278C19.1481 30.1759 19.0185 30.8565 18.8889 31.5694C18.7593 33.125 18.5648 34.3889 18.3056 35.3611C18.0463 36.2685 17.8843 37.2731 17.8194 38.375C18.0787 39.4769 18.0463 40.4167 17.7222 41.1944C17.463 41.9074 17.4306 42.5231 17.625 43.0417C17.4954 44.338 17.3657 45.6019 17.2361 46.8333C17.1713 48 17.2685 49.1991 17.5278 50.4306C17.6574 50.8194 17.7546 51.2083 17.8194 51.5972C17.8843 51.9861 17.9491 52.375 18.0139 52.7639C18.0787 53.2824 18.0463 53.8009 17.9167 54.3194C17.8519 54.838 17.8194 55.3565 17.8194 55.875C17.8843 56.3287 17.9815 56.75 18.1111 57.1389C18.2407 57.5278 18.2731 57.9491 18.2083 58.4028C18.7269 59.4398 18.9861 60.4769 18.9861 61.5139C19.0509 62.4861 19.213 63.4259 19.4722 64.3333C19.6667 64.8519 19.8287 65.3056 19.9583 65.6944C20.1528 66.0185 20.25 66.4074 20.25 66.8611C20.25 67.0556 20.2824 67.3148 20.3472 67.6389C20.412 67.963 20.412 68.2546 20.3472 68.5139C20.2176 69.2917 19.8611 69.9398 19.2778 70.4583C18.6944 72.0787 17.625 73.3102 16.0694 74.1528C15.9398 74.2824 15.7454 74.412 15.4861 74.5417C15.2917 74.6065 15.1296 74.6389 15 74.6389C14.8056 74.7685 14.5463 74.963 14.2222 75.2222C13.8981 75.4815 13.5741 75.6111 13.25 75.6111C12.9259 75.6111 12.6343 75.5463 12.375 75.4167C12.1157 75.2222 11.8565 75.1898 11.5972 75.3194C10.625 75.1898 9.78241 75.1574 9.06944 75.2222C8.4213 75.2222 7.83796 74.9954 7.31944 74.5417C7.18981 74.412 7.09259 74.25 7.02778 74.0556C7.02778 73.7963 7.125 73.6019 7.31944 73.4722C7.06019 72.6944 6.86574 72.0463 6.73611 71.5278C6.6713 71.0093 6.6713 70.6528 6.73611 70.4583C6.80093 69.875 6.73611 69.4213 6.54167 69.0972C6.41204 68.7083 6.31481 68.3194 6.25 67.9306C6.31481 67.5417 6.31481 67.1852 6.25 66.8611C6.18519 66.4722 6.18519 66.1157 6.25 65.7917C6.25 65.4028 6.31481 65.0787 6.44444 64.8194C6.57407 64.4954 6.60648 64.1713 6.54167 63.8472C6.47685 63.6528 6.34722 63.5231 6.15278 63.4583C6.02315 63.3287 5.89352 63.1667 5.76389 62.9722C5.56944 62.4537 5.40741 62.1296 5.27778 62C4.75926 60.7685 4.59722 59.8935 4.79167 59.375C5.05093 58.8565 5.21296 58.2407 5.27778 57.5278C5.40741 57.2685 5.47222 57.0417 5.47222 56.8472C5.53704 56.588 5.66667 56.3935 5.86111 56.2639C5.73148 56.1343 5.69907 55.9722 5.76389 55.7778C5.89352 55.5185 6.05556 55.3241 6.25 55.1944C6.31481 54.8704 6.37963 54.5787 6.44444 54.3194C6.50926 53.9954 6.60648 53.7037 6.73611 53.4444C6.6713 52.8611 6.6713 52.4074 6.73611 52.0833C6.80093 51.6944 6.86574 51.4028 6.93056 51.2083C6.99537 50.5602 7.125 49.9769 7.31944 49.4583C7.51389 48.875 7.64352 48.2917 7.70833 47.7083C7.70833 47.2546 7.67593 46.963 7.61111 46.8333C7.61111 46.6389 7.67593 46.4769 7.80556 46.3472C7.87037 45.8287 7.90278 45.3426 7.90278 44.8889C7.96759 44.4352 8.09722 44.0463 8.29167 43.7222L8.68056 40.8056C8.81019 40.3519 8.84259 40.0926 8.77778 40.0278C8.77778 39.963 8.77778 39.8657 8.77778 39.7361C8.77778 38.6343 8.81019 37.7917 8.875 37.2083C8.93981 36.625 8.90741 36.1389 8.77778 35.75C8.64815 35.2963 8.61574 34.8102 8.68056 34.2917C8.81019 33.7083 8.81019 33.1574 8.68056 32.6389C8.61574 31.9259 8.51852 31.375 8.38889 30.9861C8.32407 30.5324 8.32407 30.1111 8.38889 29.7222C8.19444 28.75 7.96759 27.7454 7.70833 26.7083C7.64352 26.1898 7.64352 25.7361 7.70833 25.3472C7.83796 24.8935 7.96759 24.5694 8.09722 24.375C7.96759 23.662 8.09722 23.1759 8.48611 22.9167C8.4213 22.7222 8.38889 22.3981 8.38889 21.9444C8.4537 21.4259 8.55093 21.037 8.68056 20.7778C8.55093 20.1944 8.55093 19.6435 8.68056 19.125C8.81019 18.5417 8.875 17.9907 8.875 17.4722C8.93981 17.0833 8.90741 16.662 8.77778 16.2083C8.64815 15.7546 8.64815 15.3333 8.77778 14.9444C8.64815 14.6204 8.48611 14.3611 8.29167 14.1667C8.16204 13.9074 8.03241 13.6157 7.90278 13.2917C7.70833 13.162 7.5463 13.0648 7.41667 13C7.28704 12.9352 7.125 12.838 6.93056 12.7083C6.60648 12.1898 6.34722 11.7685 6.15278 11.4444C5.95833 11.1204 5.69907 10.7639 5.375 10.375C4.9213 9.46759 4.69444 8.43055 4.69444 7.26389C5.21296 6.16204 5.53704 5.28704 5.66667 4.63889C5.86111 3.92592 6.18519 3.31018 6.63889 2.79167C6.7037 2.40278 6.96296 2.0463 7.41667 1.72222C7.93519 1.2037 8.38889 0.912036 8.77778 0.847221C9.23148 0.717591 9.58796 0.814814 9.84722 1.13889C10.9491 1.26852 11.7593 1.2037 12.2778 0.944443C12.7963 0.685184 13.412 0.523147 14.125 0.458332C15.3565 0.458332 16.2639 0.912036 16.8472 1.81944C17.1713 1.94907 17.4306 2.20833 17.625 2.59722C17.8194 2.98611 18.0787 3.34259 18.4028 3.66667C18.7269 4.50926 19.0185 5.44907 19.2778 6.48611C19.6019 7.52315 19.6991 8.49537 19.5694 9.40278C19.8935 9.9213 19.9583 10.4074 19.7639 10.8611C19.5694 11.3148 19.4398 11.8009 19.375 12.3194L19.2778 13.9722C19.2778 14.3611 19.2778 14.75 19.2778 15.1389C19.2778 15.5278 19.2454 15.9815 19.1806 16.5C19.8935 16.0463 20.5093 15.5602 21.0278 15.0417C21.5463 14.4583 22 13.8426 22.3889 13.1944C22.713 12.9352 22.9074 12.6759 22.9722 12.4167C23.1019 12.0926 23.3287 11.8333 23.6528 11.6389C23.8472 11.1204 24.1389 10.6991 24.5278 10.375C24.9815 10.0509 25.3704 9.66204 25.6944 9.20833C26.213 8.88426 26.6019 8.49537 26.8611 8.04167C27.1204 7.52315 27.5093 7.19907 28.0278 7.06944L28.7083 6.77778ZM49.4167 69.1944C49.7407 69.0648 49.9676 68.9028 50.0972 68.7083C50.2917 68.5139 50.6157 68.4167 51.0694 68.4167C51.2639 68.6759 51.4259 68.9352 51.5556 69.1944C51.75 69.3889 51.8472 69.7454 51.8472 70.2639C51.8472 70.588 51.7824 70.9769 51.6528 71.4306C51.588 71.8843 51.4259 72.2731 51.1667 72.5972C51.037 72.7269 50.8102 72.9213 50.4861 73.1806C50.2269 73.375 50 73.4722 49.8056 73.4722C49.2222 72.9537 48.8333 72.6296 48.6389 72.5C48.5093 72.3704 48.412 72.1435 48.3472 71.8194C48.2176 71.3657 48.3148 70.9444 48.6389 70.5556C49.0278 70.1019 49.287 69.6481 49.4167 69.1944ZM87.4306 11.9306C87.3657 12.3194 87.4306 12.6111 87.625 12.8056C87.8194 13 87.8843 13.2917 87.8194 13.6806C87.1065 13.9398 86.7176 14.0694 86.6528 14.0694C86.6528 14.0694 86.6204 14.1019 86.5556 14.1667C85.9074 14.1019 85.4861 14.0694 85.2917 14.0694C85.0972 14.0694 84.9352 13.9074 84.8056 13.5833C85.1944 12.8704 85.5833 12.3519 85.9722 12.0278C86.4259 11.7037 86.912 11.6713 87.4306 11.9306ZM83.25 14.8472C83.5741 14.9769 83.8009 15.1713 83.9306 15.4306C84.0602 15.6898 84.1898 15.9815 84.3194 16.3056C84.3843 17.1481 84.125 17.7315 83.5417 18.0556C83.0231 18.3796 82.5046 18.8009 81.9861 19.3194C81.7917 19.2546 81.5972 19.2546 81.4028 19.3194C81.2731 19.3843 81.0463 19.3843 80.7222 19.3194C80.5278 19.125 80.3333 18.8009 80.1389 18.3472C80.2037 17.5046 80.2685 16.8889 80.3333 16.5C80.3981 16.1111 80.4954 15.7546 80.625 15.4306C81.338 15.1065 81.8565 14.9444 82.1806 14.9444C82.5694 14.8796 82.9259 14.8472 83.25 14.8472ZM96.5694 58.6944C97.0231 58.4352 97.4444 58.1759 97.8333 57.9167C98.2222 57.6574 98.6759 57.3657 99.1944 57.0417C99.3241 56.7176 99.4537 56.4907 99.5833 56.3611C99.7778 56.1667 99.9722 55.9722 100.167 55.7778C100.426 54.9352 100.523 54.287 100.458 53.8333C100.394 53.3796 100.426 52.8935 100.556 52.375C101.333 51.8565 101.884 51.5 102.208 51.3056C102.597 51.1111 102.986 51.0787 103.375 51.2083C103.634 51.0787 103.894 51.0139 104.153 51.0139C104.477 50.9491 104.704 50.9815 104.833 51.1111C105.676 50.7222 106.551 50.5602 107.458 50.625C107.718 50.6898 107.912 50.787 108.042 50.9167C108.236 51.0463 108.431 51.1759 108.625 51.3056C108.949 51.4352 109.273 51.5324 109.597 51.5972C109.986 51.662 110.31 51.7917 110.569 51.9861C110.958 52.375 111.185 52.6667 111.25 52.8611C111.769 53.5741 111.995 54.0602 111.931 54.3194C111.931 54.5139 112.028 54.7083 112.222 54.9028C112.093 55.4213 112.06 55.8102 112.125 56.0694C112.19 56.3287 112.19 56.7176 112.125 57.2361C112.125 58.0787 111.963 58.7269 111.639 59.1806C110.991 59.7639 110.602 60.088 110.472 60.1528C110.343 60.2176 110.213 60.3148 110.083 60.4444C109.694 60.8981 109.37 61.1898 109.111 61.3194C108.852 61.3843 108.625 61.5463 108.431 61.8056C108.236 61.9352 108.074 62.0972 107.944 62.2917C107.88 62.4213 107.75 62.5509 107.556 62.6806C107.491 62.875 107.394 63.0694 107.264 63.2639C107.134 63.3935 107.005 63.5556 106.875 63.75C106.875 64.1389 106.778 64.463 106.583 64.7222C106.389 64.9815 106.13 65.2083 105.806 65.4028C105.546 65.5972 105.255 65.8241 104.931 66.0833C104.671 66.2778 104.477 66.5694 104.347 66.9583C104.023 66.9583 103.731 67.1204 103.472 67.4444C103.278 67.7037 103.019 67.8333 102.694 67.8333C101.657 68.4167 100.912 68.838 100.458 69.0972C100.005 69.2917 99.4861 69.4537 98.9028 69.5833C98.2546 69.8426 97.7685 69.9074 97.4444 69.7778C97.1204 69.5833 96.7639 69.4861 96.375 69.4861C96.0509 69.4213 95.7269 69.4537 95.4028 69.5833C95.0787 69.6481 94.7546 69.6806 94.4306 69.6806C93.5231 69.6157 92.9398 69.4861 92.6806 69.2917C92.4213 69.0972 92.1296 68.9352 91.8056 68.8056C91.4167 68.8056 91.1574 68.7731 91.0278 68.7083C90.963 68.5787 90.8657 68.5139 90.7361 68.5139C89.6991 68.3843 89.0185 68.0926 88.6944 67.6389C88.3704 67.1852 87.9491 66.8611 87.4306 66.6667C86.7824 65.7593 86.0694 64.9491 85.2917 64.2361C84.5139 63.4583 83.9306 62.5185 83.5417 61.4167C83.2824 61.1574 83.088 60.8657 82.9583 60.5417C82.8287 60.2176 82.6991 59.8935 82.5694 59.5694C82.375 59.375 82.1806 59.0509 81.9861 58.5972C81.8565 58.1435 81.6296 57.7222 81.3056 57.3333C81.0463 56.8796 80.8519 56.4259 80.7222 55.9722C80.6574 55.7778 80.625 55.5833 80.625 55.3889C80.6898 55.1296 80.625 54.9352 80.4306 54.8056C80.3657 54.3519 80.3009 53.8333 80.2361 53.25C80.1713 52.6667 80.0741 52.1806 79.9444 51.7917C79.9444 51.2731 79.9769 50.7546 80.0417 50.2361C80.1065 49.7176 80.1065 49.1667 80.0417 48.5833C80.0417 48 79.9769 47.4167 79.8472 46.8333C79.7176 46.25 79.6528 45.6991 79.6528 45.1806C79.6528 44.9861 79.6852 44.7917 79.75 44.5972C79.8148 44.4028 79.8472 44.2407 79.8472 44.1111C79.8472 43.463 79.9444 42.75 80.1389 41.9722C80.3981 41.1296 80.6898 40.3519 81.0139 39.6389C81.0139 39.3796 80.9815 39.1204 80.9167 38.8611C80.8519 38.6019 80.8843 38.375 81.0139 38.1806C80.6898 37.662 80.6574 37.0139 80.9167 36.2361C80.787 35.7176 80.7222 35.2639 80.7222 34.875C80.787 34.4861 80.8519 34.0324 80.9167 33.5139C80.787 33.3194 80.7222 32.9306 80.7222 32.3472C80.787 31.2454 80.8843 30.1111 81.0139 28.9444C81.1435 27.713 81.3704 26.6435 81.6944 25.7361C81.6944 25.3472 81.7917 25.0231 81.9861 24.7639C82.2454 24.4398 82.5046 24.0509 82.7639 23.5972C83.0231 23.0787 83.2176 22.7546 83.3472 22.625C83.4769 22.4954 83.5741 22.3657 83.6389 22.2361C83.8333 21.8472 83.9954 21.6204 84.125 21.5556C84.2546 21.4259 84.3194 21.2639 84.3194 21.0694C85.2917 19.9028 86.3611 19.0602 87.5278 18.5417C88.2407 18.088 88.7593 17.8287 89.0833 17.7639C89.4074 17.6991 89.7315 17.6019 90.0556 17.4722C90.3148 17.3426 90.6389 17.213 91.0278 17.0833C91.4815 16.9537 91.8704 16.9537 92.1944 17.0833C92.5833 16.8889 93.0694 16.7269 93.6528 16.5972C94.2361 16.4028 94.7546 16.3056 95.2083 16.3056C95.5972 15.9815 96.0185 15.8194 96.4722 15.8194C96.9907 15.8194 97.5093 15.8843 98.0278 16.0139C98.6111 16.2083 98.9676 16.3056 99.0972 16.3056C99.2269 16.2407 99.3565 16.2083 99.4861 16.2083C99.9398 16.2083 100.361 16.3056 100.75 16.5C101.463 16.5 102.208 16.5972 102.986 16.7917C103.764 16.9861 104.412 17.2454 104.931 17.5694C105.06 17.8935 105.287 18.1528 105.611 18.3472C105.935 18.4769 106.162 18.7037 106.292 19.0278C106.616 19.1574 106.907 19.3519 107.167 19.6111C107.491 19.8056 107.718 20.0972 107.847 20.4861C108.56 20.8102 109.079 21.3287 109.403 22.0417C109.727 22.6898 110.083 23.2731 110.472 23.7917C110.407 24.1157 110.44 24.4074 110.569 24.6667C110.699 24.8611 110.764 25.1528 110.764 25.5417C110.958 25.8009 111.153 26.0278 111.347 26.2222C111.542 26.4167 111.736 26.6435 111.931 26.9028C111.931 27.4861 111.995 28.037 112.125 28.5556C112.319 29.0741 112.417 29.5926 112.417 30.1111C112.676 31.0185 112.773 32.088 112.708 33.3194C112.708 33.7083 112.644 34.1296 112.514 34.5833C112.384 34.9722 112.319 35.3935 112.319 35.8472C112.255 36.3657 112.319 36.8843 112.514 37.4028C112.708 37.8565 112.676 38.3426 112.417 38.8611C112.611 39.963 112.579 40.9028 112.319 41.6806C112.06 42.3935 111.866 43.1713 111.736 44.0139C111.606 44.2083 111.509 44.4352 111.444 44.6944C111.444 44.9537 111.315 45.1481 111.056 45.2778C110.926 45.4722 110.731 45.6343 110.472 45.7639C110.213 45.8935 109.921 46.0231 109.597 46.1528C108.625 46.6713 107.685 46.9954 106.778 47.125C106.389 47.2546 105.968 47.3194 105.514 47.3194C105.06 47.2546 104.574 47.1898 104.056 47.125C103.213 46.9306 102.565 46.8981 102.111 47.0278C101.722 47.1574 101.333 47.2546 100.944 47.3194C100.491 47.4491 100.069 47.5463 99.6806 47.6111C99.2917 47.6759 98.838 47.6435 98.3194 47.5139C97.6713 47.838 96.9259 47.9028 96.0833 47.7083C95.2407 47.7083 94.5926 47.6759 94.1389 47.6111C93.75 47.4815 93.4583 47.3194 93.2639 47.125C92.6157 46.9954 91.9028 46.8981 91.125 46.8333C90.412 46.7685 89.7963 46.7361 89.2778 46.7361C88.7593 46.9954 88.4676 47.4815 88.4028 48.1944C88.338 48.9074 88.2407 49.6204 88.1111 50.3333C88.0463 50.6574 87.9815 51.0463 87.9167 51.5C87.9167 51.8889 87.9815 52.2778 88.1111 52.6667C88.4352 53.3148 88.662 54.0602 88.7917 54.9028C88.9213 55.6806 89.1157 56.4259 89.375 57.1389C89.6991 57.3981 89.9259 57.787 90.0556 58.3056C90.7037 58.5 91.3519 58.5972 92 58.5972C92.5185 58.2731 93.037 58.2407 93.5556 58.5C94.0741 58.7593 94.5926 58.7269 95.1111 58.4028C95.2407 58.5972 95.4676 58.662 95.7917 58.5972C96.1157 58.5324 96.375 58.5648 96.5694 58.6944ZM103.375 28.75C102.921 27.8426 102.5 26.9676 102.111 26.125C101.787 25.2824 101.106 24.7639 100.069 24.5694C99.5509 24.1806 99.2269 23.9861 99.0972 23.9861C98.5787 23.8565 98.0602 23.7269 97.5417 23.5972C97.088 23.4676 96.6019 23.338 96.0833 23.2083C95.3056 23.0787 94.8194 23.1435 94.625 23.4028C94.4306 23.5972 94.1389 23.6944 93.75 23.6944C93.6204 23.8241 93.4907 23.9861 93.3611 24.1806C93.2315 24.375 93.0046 24.4722 92.6806 24.4722C92.162 25.1204 91.838 25.6389 91.7083 26.0278C91.6435 26.4167 91.5463 26.8056 91.4167 27.1944C91.6111 27.3889 91.6759 27.6481 91.6111 27.9722C91.5463 28.2315 91.5139 28.5231 91.5139 28.8472C91.5787 29.2361 91.6759 29.625 91.8056 30.0139C92 30.4028 92.0324 30.7917 91.9028 31.1806C92.0972 31.4398 92.162 31.7639 92.0972 32.1528C92.0324 32.5417 92.0648 32.8981 92.1944 33.2222C91.8704 33.9352 91.7083 34.3565 91.7083 34.4861C91.7731 34.5509 91.7407 34.5833 91.6111 34.5833C91.7407 35.1667 91.6111 35.6852 91.2222 36.1389C90.8981 36.5278 90.6713 37.0463 90.5417 37.6944C90.5417 38.0833 90.5093 38.4398 90.4444 38.7639C90.3796 39.0231 90.3148 39.3472 90.25 39.7361C90.7037 39.9306 91.1574 40.125 91.6111 40.3194C92.1296 40.4491 92.5509 40.6759 92.875 41C93.1991 41 93.4583 41.0324 93.6528 41.0972C93.912 41.0972 94.1389 41 94.3333 40.8056C94.9815 40.7407 95.662 40.7407 96.375 40.8056C97.088 40.8704 97.8009 40.9676 98.5139 41.0972C99.2269 41.162 99.9074 41.2269 100.556 41.2917C101.269 41.2917 101.949 41.2269 102.597 41.0972C103.181 41.0972 103.537 40.9676 103.667 40.7083C103.796 40.3843 103.926 40.0926 104.056 39.8333C104.38 39.5093 104.574 39.1528 104.639 38.7639C104.704 37.7269 104.704 37.1111 104.639 36.9167C104.639 35.9444 104.639 35.2639 104.639 34.875C104.704 34.4213 104.704 34.0324 104.639 33.7083C104.574 32.088 104.218 30.5972 103.569 29.2361L103.375 28.75ZM100.167 39.6389C99.9074 39.5093 99.713 39.3472 99.5833 39.1528C99.5185 38.8935 99.4213 38.6991 99.2917 38.5694C99.2269 38.1157 99.4537 37.8241 99.9722 37.6944C100.102 37.4352 100.264 37.2083 100.458 37.0139C100.653 36.8194 100.815 36.5602 100.944 36.2361C101.333 36.1713 101.657 36.2685 101.917 36.5278C102.176 36.7222 102.468 36.8519 102.792 36.9167C103.31 37.5 103.375 38.0833 102.986 38.6667C102.597 39.1852 102.111 39.5093 101.528 39.6389C101.009 39.3796 100.556 39.3796 100.167 39.6389ZM113.583 62.4861C113.778 62.6157 113.843 62.7778 113.778 62.9722C113.713 63.1667 113.648 63.3935 113.583 63.6528C113.519 64.0417 113.519 64.3333 113.583 64.5278C113.648 64.6574 113.616 64.8519 113.486 65.1111C113.421 65.2407 113.292 65.4028 113.097 65.5972C112.903 65.7917 112.773 65.9537 112.708 66.0833C112.19 66.7315 111.801 67.0556 111.542 67.0556C111.347 66.9907 111.185 66.9583 111.056 66.9583C110.537 67.2176 109.954 67.3148 109.306 67.25C108.657 67.1204 108.366 66.8287 108.431 66.375C108.431 66.1157 108.56 65.8889 108.819 65.6944C109.079 65.5 109.273 65.3056 109.403 65.1111C109.597 64.8519 109.694 64.625 109.694 64.4306C109.759 64.1713 109.856 63.9444 109.986 63.75C110.764 63.037 111.412 62.6806 111.931 62.6806C112.449 62.6157 113 62.5509 113.583 62.4861ZM80.4306 65.8889C80.625 65.7593 80.7546 65.5972 80.8194 65.4028C80.8843 65.2083 80.9815 65.0463 81.1111 64.9167C81.6944 64.787 82.0185 64.7222 82.0833 64.7222C82.213 64.7222 82.3426 64.6574 82.4722 64.5278C82.7963 64.6574 83.0556 64.8194 83.25 65.0139C83.5093 65.1435 83.8333 65.2407 84.2222 65.3056C84.8056 65.6944 84.9352 66.1806 84.6111 66.7639C84.287 67.3472 84.0278 67.8657 83.8333 68.3194C82.6019 68.5139 81.4352 68.3519 80.3333 67.8333C80.2037 67.4444 80.2037 67.1204 80.3333 66.8611C80.463 66.537 80.4954 66.213 80.4306 65.8889ZM157.625 1.625C157.625 2.0787 157.56 2.40278 157.431 2.59722C157.301 2.79167 157.074 2.98611 156.75 3.18055C156.102 3.69907 155.681 3.99074 155.486 4.05555C155.356 4.12037 155.227 4.21759 155.097 4.34722C154.773 4.47685 154.481 4.50926 154.222 4.44444C153.963 4.31481 153.736 4.21759 153.542 4.15278C153.412 4.02315 153.315 3.8287 153.25 3.56944C153.25 3.31018 153.218 3.11574 153.153 2.98611C153.218 2.59722 153.347 2.27315 153.542 2.01389C153.801 1.75463 154.093 1.49537 154.417 1.23611C154.935 0.912036 155.551 0.782406 156.264 0.847221C156.977 0.912036 157.431 1.1713 157.625 1.625ZM125.153 19.9028C125.412 19.7731 125.671 19.6435 125.931 19.5139C126.19 19.3194 126.481 19.2222 126.806 19.2222C127.583 19.2222 128.199 19.2222 128.653 19.2222C129.106 19.1574 129.495 19.287 129.819 19.6111C130.208 20.6481 130.306 21.4259 130.111 21.9444C129.981 22.463 129.852 22.9815 129.722 23.5C128.75 23.8241 127.907 23.9537 127.194 23.8889C126.546 23.8241 125.995 23.5648 125.542 23.1111C125.542 22.7222 125.412 22.3657 125.153 22.0417C124.958 21.6528 124.894 21.2639 124.958 20.875L125.153 19.9028ZM128.944 25.5417C129.593 25.8009 129.949 26.0926 130.014 26.4167C130.144 27.1296 130.144 27.5833 130.014 27.7778C129.884 27.9074 129.755 28.037 129.625 28.1667C129.236 28.6852 128.718 28.8796 128.069 28.75C127.875 28.5556 127.648 28.2963 127.389 27.9722C127.13 27.6481 127.032 27.3241 127.097 27C127.097 26.6759 127.227 26.4815 127.486 26.4167C127.745 26.287 127.94 26.0926 128.069 25.8333L128.944 25.5417ZM147.222 68.5139C146.769 68.0602 146.444 67.4769 146.25 66.7639C146.38 66.5046 146.477 66.2778 146.542 66.0833C146.606 65.8241 146.704 65.5324 146.833 65.2083C147.093 64.7546 147.514 64.463 148.097 64.3333C148.227 64.3333 148.551 64.3657 149.069 64.4306C149.653 64.4306 150.009 64.4954 150.139 64.625C150.593 64.9491 150.722 65.5324 150.528 66.375C150.333 67.1528 150.074 67.7037 149.75 68.0278C149.426 68.287 149.037 68.4491 148.583 68.5139C148.13 68.5787 147.676 68.5787 147.222 68.5139ZM150.528 72.5972C150.852 73.1806 151.046 73.6019 151.111 73.8611C151.176 74.0556 151.208 74.3148 151.208 74.6389C150.69 75.1574 150.366 75.5139 150.236 75.7083C150.171 75.9028 150.074 76.0648 149.944 76.1944C149.62 76.2593 149.394 76.3565 149.264 76.4861C149.134 76.6806 148.907 76.7454 148.583 76.6806C148.389 76.5509 148.194 76.3889 148 76.1944C147.806 76.0648 147.579 75.9352 147.319 75.8056C147.255 75.4815 147.19 75.1898 147.125 74.9306C147.06 74.6065 147.028 74.1852 147.028 73.6667C147.157 73.4722 147.319 73.2778 147.514 73.0833C147.708 72.8889 147.968 72.7593 148.292 72.6944C148.875 72.3704 149.296 72.3056 149.556 72.5C149.88 72.6944 150.204 72.7269 150.528 72.5972ZM160.444 18.6389C159.407 18.5093 158.403 18.4444 157.431 18.4444C156.523 18.4444 155.616 18.4769 154.708 18.5417C154.579 18.412 154.384 18.3472 154.125 18.3472C153.866 18.3472 153.671 18.25 153.542 18.0556C152.958 18.1204 152.569 18.1852 152.375 18.25C152.181 18.25 151.986 18.2176 151.792 18.1528C151.468 18.088 151.176 17.9907 150.917 17.8611C150.657 17.7315 150.366 17.6667 150.042 17.6667C149.329 17.7315 148.648 17.7639 148 17.7639C147.352 17.6991 146.704 17.7315 146.056 17.8611C145.472 18.5093 145.051 18.8981 144.792 19.0278C144.532 19.6111 144.306 20.1296 144.111 20.5833C143.917 21.037 143.852 21.588 143.917 22.2361C143.981 22.5602 144.046 22.8519 144.111 23.1111C144.241 23.3704 144.306 23.662 144.306 23.9861C144.306 24.2454 144.273 24.4722 144.208 24.6667C144.144 24.8611 144.111 25.0556 144.111 25.25C144.111 25.5741 144.144 25.8657 144.208 26.125C144.273 26.3194 144.306 26.5463 144.306 26.8056C144.37 27.3241 144.338 27.8102 144.208 28.2639C144.144 28.7176 144.111 29.1713 144.111 29.625C144.111 29.8843 144.079 30.1435 144.014 30.4028C143.949 30.5972 143.917 30.8241 143.917 31.0833C143.852 31.8611 143.819 32.6389 143.819 33.4167C143.819 34.1944 143.722 34.9074 143.528 35.5556C143.657 36.5278 143.625 37.2731 143.431 37.7917C143.236 38.3102 143.139 38.8287 143.139 39.3472C143.139 39.6713 143.171 40.0278 143.236 40.4167C143.301 40.7407 143.236 41.0648 143.042 41.3889C143.106 42.2963 143.171 43.0417 143.236 43.625C143.301 44.2083 143.366 44.9537 143.431 45.8611C143.56 46.3148 143.625 46.8333 143.625 47.4167C143.69 48 143.593 48.5185 143.333 48.9722C142.75 50.0741 142.556 51.1435 142.75 52.1806C142.815 52.5046 142.88 52.7963 142.944 53.0556C143.074 53.3148 143.139 53.6065 143.139 53.9306C143.139 54.125 143.139 54.3519 143.139 54.6111C143.139 54.8056 143.204 55.0324 143.333 55.2917C143.657 56.1991 143.787 56.9444 143.722 57.5278C143.657 58.1111 143.69 58.662 143.819 59.1806C143.69 59.5046 143.657 59.8287 143.722 60.1528C143.787 60.412 143.755 60.6713 143.625 60.9306C143.301 61.9676 143.236 62.875 143.431 63.6528C143.625 64.4306 143.787 65.0139 143.917 65.4028C143.981 65.7269 143.981 66.0185 143.917 66.2778C143.917 66.537 143.949 66.7963 144.014 67.0556C144.014 67.7037 144.014 68.0602 144.014 68.125C144.079 68.1898 144.111 68.2546 144.111 68.3194C144.046 68.7083 143.949 69.162 143.819 69.6806C143.755 70.1991 143.722 70.6528 143.722 71.0417C143.787 71.8194 143.755 72.338 143.625 72.5972C143.56 72.7917 143.528 72.9861 143.528 73.1806C143.528 73.9583 143.495 74.3796 143.431 74.4444C143.366 74.4444 143.269 74.5093 143.139 74.6389C142.944 74.963 142.782 75.2222 142.653 75.4167C142.523 75.6111 142.296 75.7731 141.972 75.9028C141.843 76.2269 141.648 76.4537 141.389 76.5833C141.194 76.713 141 76.8426 140.806 76.9722C140.546 76.9074 140.319 76.9074 140.125 76.9722C139.995 77.1019 139.866 77.1019 139.736 76.9722C139.023 77.4259 138.602 77.75 138.472 77.9444C138.343 78.1389 138.181 78.3009 137.986 78.4306C137.468 78.3657 137.014 78.2361 136.625 78.0417C136.236 77.912 135.782 77.8796 135.264 77.9444C134.551 77.9444 134.065 77.9769 133.806 78.0417C133.546 78.1065 133.352 78.0093 133.222 77.75C132.185 77.2963 131.44 76.9074 130.986 76.5833C130.532 76.2593 130.338 75.838 130.403 75.3194C130.144 74.9954 129.981 74.6065 129.917 74.1528C129.917 73.6343 129.755 73.2778 129.431 73.0833C129.236 72.6944 129.106 72.338 129.042 72.0139C129.171 71.5602 129.171 71.1713 129.042 70.8472C128.912 70.5231 128.944 70.1343 129.139 69.6806C129.139 69.0324 129.074 68.3843 128.944 67.7361C128.88 67.0231 129.074 66.4722 129.528 66.0833C129.787 65.5648 129.852 65.1759 129.722 64.9167C130.046 64.0741 130.403 63.3935 130.792 62.875C131.245 62.2917 131.505 61.6111 131.569 60.8333C131.829 60.3148 132.023 59.7639 132.153 59.1806C132.347 58.5324 132.412 57.8843 132.347 57.2361C132.606 56.9769 132.671 56.6852 132.542 56.3611C132.477 56.037 132.509 55.713 132.639 55.3889C132.444 54.4167 132.347 53.7037 132.347 53.25C132.412 52.7963 132.412 52.2778 132.347 51.6944C132.218 51.2407 132.153 50.8194 132.153 50.4306C132.218 49.9769 132.282 49.4907 132.347 48.9722C132.218 48.2593 132.218 47.5787 132.347 46.9306C132.542 46.2176 132.542 45.5046 132.347 44.7917C132.477 44.4676 132.509 44.1111 132.444 43.7222C132.444 43.2685 132.412 42.7824 132.347 42.2639C132.347 41.875 132.38 41.4861 132.444 41.0972C132.509 40.7083 132.477 40.4167 132.347 40.2222C132.477 39.963 132.509 39.5741 132.444 39.0556C132.38 38.4722 132.315 37.9861 132.25 37.5972C132.38 37.1435 132.444 36.7222 132.444 36.3333C132.444 35.8796 132.509 35.4259 132.639 34.9722C132.509 34.8426 132.477 34.6157 132.542 34.2917C132.671 33.9676 132.801 33.7407 132.931 33.6111C133.06 33.0926 133.125 32.5741 133.125 32.0556C133.125 31.4722 133.19 30.9213 133.319 30.4028C133.449 29.8843 133.611 29.4306 133.806 29.0417C134.065 28.6528 134.292 28.2315 134.486 27.7778C134.356 27.5185 134.259 27.2917 134.194 27.0972C134.13 26.838 134.032 26.6111 133.903 26.4167C133.708 25.1852 133.449 24.1157 133.125 23.2083C132.801 22.2361 132.801 21.1991 133.125 20.0972C132.995 19.3194 132.931 18.7037 132.931 18.25C132.931 17.7315 132.963 17.3102 133.028 16.9861C132.704 16.2083 132.38 15.7546 132.056 15.625C131.731 15.4954 131.505 15.2685 131.375 14.9444C130.986 15.0093 130.565 14.9769 130.111 14.8472C129.722 14.6528 129.301 14.5231 128.847 14.4583C127.94 14.588 127 14.6852 126.028 14.75C125.12 14.75 124.245 14.9769 123.403 15.4306C123.208 15.7546 122.852 16.0139 122.333 16.2083C121.944 16.7269 121.523 17.2454 121.069 17.7639C120.616 18.2824 120.097 18.7361 119.514 19.125C119.319 18.9954 119.093 18.9306 118.833 18.9306C118.574 18.9306 118.347 18.8657 118.153 18.7361C117.634 18.8009 117.019 18.7685 116.306 18.6389C115.657 18.5093 115.204 18.1852 114.944 17.6667C114.296 17.4722 113.875 17.0833 113.681 16.5C113.162 16.1759 112.838 15.787 112.708 15.3333C112.579 14.8148 112.352 14.3935 112.028 14.0694C111.898 13.4213 111.833 12.7407 111.833 12.0278C111.833 11.25 111.833 10.6019 111.833 10.0833C112.028 9.88889 112.125 9.66204 112.125 9.40278C112.06 9.14352 112.125 8.94907 112.319 8.81944C112.319 8.56018 112.384 8.30092 112.514 8.04167C112.579 7.78241 112.644 7.49074 112.708 7.16667C112.773 6.77778 112.903 6.51852 113.097 6.38889C113.292 6.19444 113.421 5.96759 113.486 5.70833C114.264 5.38426 114.944 5.06018 115.528 4.73611C116.046 4.41204 116.727 4.12037 117.569 3.86111C118.088 3.47222 118.639 3.18055 119.222 2.98611C119.806 2.79167 120.356 2.53241 120.875 2.20833C121.394 2.33796 121.782 2.59722 122.042 2.98611C122.366 3.375 122.787 3.66667 123.306 3.86111C123.5 3.99074 123.694 4.05555 123.889 4.05555C124.083 3.99074 124.278 3.99074 124.472 4.05555C124.602 4.12037 124.764 4.21759 124.958 4.34722C125.153 4.41204 125.38 4.50926 125.639 4.63889C126.287 4.83333 126.87 5.02778 127.389 5.22222C127.972 5.41667 128.491 5.70833 128.944 6.09722C129.528 6.22685 129.949 6.32407 130.208 6.38889C130.532 6.38889 130.856 6.38889 131.181 6.38889C131.505 6.4537 131.861 6.51852 132.25 6.58333C132.639 6.64815 133.06 6.71296 133.514 6.77778C133.708 6.77778 133.903 6.74537 134.097 6.68055C134.292 6.61574 134.486 6.64815 134.681 6.77778C135.199 6.64815 135.653 6.58333 136.042 6.58333C136.495 6.51852 136.949 6.4537 137.403 6.38889C139.282 6.19444 141.097 6.19444 142.847 6.38889C143.69 6.51852 144.241 6.58333 144.5 6.58333C144.824 6.51852 145.148 6.48611 145.472 6.48611C145.861 6.48611 146.218 6.51852 146.542 6.58333C146.931 6.58333 147.352 6.58333 147.806 6.58333C149.102 6.90741 150.139 7.00463 150.917 6.875C151.759 6.68055 152.505 6.71296 153.153 6.97222C153.412 6.97222 153.736 6.97222 154.125 6.97222C154.579 6.90741 154.968 6.875 155.292 6.875C156.069 6.68055 156.847 6.4537 157.625 6.19444C158.468 5.93518 159.245 5.61111 159.958 5.22222C161.319 5.80555 162.356 6.4213 163.069 7.06944C163.847 7.71759 164.333 8.65741 164.528 9.88889C164.787 10.4074 164.917 10.9907 164.917 11.6389C164.917 12.287 164.884 12.9028 164.819 13.4861C164.69 14.1343 164.463 14.6852 164.139 15.1389C163.815 15.5278 163.491 15.9491 163.167 16.4028C162.907 16.5324 162.681 16.7269 162.486 16.9861C162.292 17.2454 162.032 17.4398 161.708 17.5694C161.579 17.8287 161.352 18.0556 161.028 18.25C160.769 18.3796 160.574 18.5093 160.444 18.6389ZM186.889 21.1667C187.083 20.8426 187.31 20.4861 187.569 20.0972C187.829 19.7083 188.12 19.3519 188.444 19.0278C188.704 18.8981 189.028 18.8009 189.417 18.7361C189.87 18.6065 190.292 18.5417 190.681 18.5417C191.134 18.5417 191.491 18.6389 191.75 18.8333C192.009 19.0278 192.139 19.3519 192.139 19.8056C192.009 20.4537 191.782 21.0046 191.458 21.4583C191.134 21.8472 190.778 22.2037 190.389 22.5278C189.87 22.5926 189.481 22.787 189.222 23.1111C188.963 23.4352 188.574 23.5972 188.056 23.5972C187.148 23.2731 186.727 22.6898 186.792 21.8472L186.889 21.1667ZM194.375 24.0833C194.051 23.8241 193.889 23.5324 193.889 23.2083C193.954 22.8194 194.083 22.5278 194.278 22.3333C194.472 22.0741 194.731 21.912 195.056 21.8472C195.444 21.7824 195.801 21.8796 196.125 22.1389C196.449 23.1111 196.352 23.7269 195.833 23.9861C195.38 24.1806 194.894 24.213 194.375 24.0833ZM190.389 62C190.778 61.8704 191.037 61.6435 191.167 61.3194C191.296 60.9954 191.458 60.6713 191.653 60.3472C192.106 59.2454 192.301 58.3056 192.236 57.5278C192.171 56.75 192.301 56.0694 192.625 55.4861C192.755 54.838 192.852 54.4815 192.917 54.4167C192.722 53.7037 192.625 53.0231 192.625 52.375C192.625 51.7269 192.657 51.0463 192.722 50.3333C192.657 50.1389 192.593 49.9444 192.528 49.75C192.528 49.4907 192.593 49.2963 192.722 49.1667C192.463 48.6481 192.301 48.0324 192.236 47.3194C192.236 46.5417 192.366 45.9583 192.625 45.5694C192.495 45.375 192.463 45.1481 192.528 44.8889C192.593 44.6296 192.593 44.3704 192.528 44.1111C192.528 43.9167 192.495 43.7222 192.431 43.5278C192.366 43.3333 192.333 43.1389 192.333 42.9444C192.333 42.6204 192.366 42.2963 192.431 41.9722C192.56 41.5833 192.463 41.1944 192.139 40.8056C192.074 40.3519 192.042 39.963 192.042 39.6389C192.042 39.25 191.944 38.9259 191.75 38.6667C191.815 37.7593 191.782 37.2083 191.653 37.0139C190.94 36.3009 190.519 35.7176 190.389 35.2639C190.259 34.8102 190.097 34.4213 189.903 34.0972C189.708 33.3194 189.579 32.7685 189.514 32.4444C189.449 32.0556 189.319 31.7639 189.125 31.5694C189.319 31.1157 189.384 30.662 189.319 30.2083C189.255 29.6898 189.384 29.2361 189.708 28.8472C189.838 28.7176 190 28.588 190.194 28.4583C190.454 28.3287 190.681 28.1667 190.875 27.9722C191.264 27.713 191.556 27.5185 191.75 27.3889C192.009 27.1944 192.366 27.0324 192.819 26.9028C193.079 27.0972 193.338 27.1296 193.597 27C193.921 26.8704 194.245 26.838 194.569 26.9028C194.894 26.9028 195.185 26.9676 195.444 27.0972C195.704 27.2269 196.028 27.3241 196.417 27.3889C196.741 27.4537 197.032 27.5509 197.292 27.6806C197.551 27.8102 197.907 27.875 198.361 27.875C198.62 28.1343 198.88 28.2639 199.139 28.2639C199.398 28.2639 199.69 28.3611 200.014 28.5556C200.468 28.8796 200.727 29.2685 200.792 29.7222C200.921 30.1759 201.051 30.7269 201.181 31.375C201.505 32.1528 201.634 32.6389 201.569 32.8333C201.569 32.963 201.634 33.0926 201.764 33.2222C201.764 33.5463 201.731 33.838 201.667 34.0972C201.667 34.3565 201.731 34.6481 201.861 34.9722C201.731 35.5556 201.602 36.1713 201.472 36.8194C201.343 37.4676 201.245 38.0509 201.181 38.5694C200.727 39.088 200.5 39.412 200.5 39.5417C200.111 40.0602 199.917 40.3843 199.917 40.5139C199.917 40.6435 199.852 40.7731 199.722 40.9028C199.593 41.0972 199.528 41.2917 199.528 41.4861C199.528 41.6157 199.463 41.8102 199.333 42.0694C199.074 42.7824 198.944 43.3981 198.944 43.9167C198.944 44.3704 198.88 44.8241 198.75 45.2778C199.009 46.3148 199.106 47.3843 199.042 48.4861C199.042 49.588 199.366 50.4954 200.014 51.2083C200.014 52.1157 200.014 52.6019 200.014 52.6667C200.208 53.5741 200.241 54.3519 200.111 55C200.046 55.6481 199.981 56.3287 199.917 57.0417C199.917 57.3657 199.819 57.6574 199.625 57.9167C199.495 58.1111 199.463 58.338 199.528 58.5972C199.593 59.0509 199.819 59.3102 200.208 59.375C200.597 59.4398 200.889 59.6343 201.083 59.9583C201.148 60.088 201.181 60.2824 201.181 60.5417C201.245 60.8009 201.31 61.0926 201.375 61.4167C201.569 62.1944 201.699 63.0694 201.764 64.0417C201.894 65.0139 202.088 65.9537 202.347 66.8611C202.412 67.0556 202.477 67.25 202.542 67.4444C202.671 67.6389 202.801 67.8333 202.931 68.0278C203.06 68.287 203.19 68.5787 203.319 68.9028C203.449 69.162 203.579 69.3889 203.708 69.5833C204.032 69.9074 204.324 70.3287 204.583 70.8472C204.907 71.3009 205.069 71.787 205.069 72.3056C205.005 72.7593 204.875 73.213 204.681 73.6667C204.551 74.1204 204.421 74.5093 204.292 74.8333C203.773 75.2222 203.287 75.6111 202.833 76C202.444 76.4537 201.894 76.7454 201.181 76.875C200.921 77.1991 200.532 77.3611 200.014 77.3611C199.495 77.3611 199.074 77.3611 198.75 77.3611C198.296 77.1667 197.875 76.9722 197.486 76.7778C197.097 76.5833 196.773 76.3241 196.514 76C196.319 75.5463 196.157 75.2546 196.028 75.125C195.963 74.9306 195.898 74.7361 195.833 74.5417C195.704 74.088 195.639 73.6667 195.639 73.2778C195.639 72.8241 195.477 72.4352 195.153 72.1111C195.088 71.3333 194.991 70.8796 194.861 70.75C194.731 70.5556 194.699 70.2639 194.764 69.875C194.181 70.7824 193.727 71.3981 193.403 71.7222C193.079 71.9815 192.722 72.2731 192.333 72.5972C191.037 73.4398 189.838 73.9259 188.736 74.0556C187.699 74.1852 186.759 74.412 185.917 74.7361C185.593 74.6065 185.269 74.6065 184.944 74.7361C184.685 74.8657 184.394 74.8981 184.069 74.8333C183.745 74.963 183.259 75.0278 182.611 75.0278C181.963 75.0278 181.347 75.0602 180.764 75.125C180.31 75.1898 179.856 75.2222 179.403 75.2222C178.949 75.1574 178.463 75.125 177.944 75.125C177.685 75.125 177.394 75.1574 177.069 75.2222C176.81 75.287 176.551 75.287 176.292 75.2222C176.097 75.2222 175.838 75.1574 175.514 75.0278C175.255 74.8981 174.963 74.8333 174.639 74.8333C174.315 74.7037 174.023 74.6065 173.764 74.5417C173.505 74.412 173.31 74.1852 173.181 73.8611C172.856 73.8611 172.597 73.7963 172.403 73.6667C172.208 73.537 172.014 73.4074 171.819 73.2778C171.69 72.9537 171.431 72.7269 171.042 72.5972C170.653 72.4028 170.394 72.1435 170.264 71.8194C169.745 71.625 169.324 71.3333 169 70.9444C168.741 70.5556 168.417 70.1991 168.028 69.875C167.898 69.162 167.736 68.4815 167.542 67.8333C167.412 67.1204 167.185 66.4722 166.861 65.8889C166.991 65.5648 167.023 65.2083 166.958 64.8194C166.894 64.4306 166.926 64.0741 167.056 63.75C166.731 63.2963 166.569 62.713 166.569 62C166.634 61.287 166.731 60.6713 166.861 60.1528C166.926 59.4398 166.894 59.0185 166.764 58.8889C166.894 58.5648 166.991 58.2407 167.056 57.9167C167.185 57.5926 167.25 57.1713 167.25 56.6528C167.509 55.9398 167.704 55.2593 167.833 54.6111C167.963 53.963 168.222 53.3796 168.611 52.8611C168.546 52.6667 168.579 52.4722 168.708 52.2778C168.903 52.0185 168.935 51.7917 168.806 51.5972C168.935 51.4676 169.032 51.3056 169.097 51.1111C169.227 50.9167 169.356 50.7546 169.486 50.625C169.616 50.3657 169.713 50.1389 169.778 49.9444C169.843 49.75 169.875 49.588 169.875 49.4583C169.94 49.1343 169.94 48.875 169.875 48.6806C169.81 48.4213 169.778 48.1944 169.778 48C169.713 47.0926 169.648 46.4444 169.583 46.0556C169.519 45.6667 169.486 45.3102 169.486 44.9861C169.486 44.0787 169.519 43.463 169.583 43.1389C169.713 42.75 169.648 42.4259 169.389 42.1667C169.454 41.5185 169.454 41.0324 169.389 40.7083C169.324 40.3194 169.356 39.9954 169.486 39.7361C169.421 39.4769 169.324 39.2176 169.194 38.9583C169.13 38.6343 169.162 38.375 169.292 38.1806C169.162 37.8565 169.065 37.5324 169 37.2083C168.935 36.8843 168.806 36.5602 168.611 36.2361C168.287 35.7176 167.866 35.3935 167.347 35.2639C166.829 35.1343 166.213 34.9722 165.5 34.7778C165.176 34.4537 164.755 34.1944 164.236 34C163.718 33.8056 163.329 33.4815 163.069 33.0278C162.551 33.0278 162.227 32.8009 162.097 32.3472C161.968 31.8287 161.741 31.4398 161.417 31.1806C161.481 30.2731 161.611 29.6898 161.806 29.4306C162.065 29.1065 162.194 28.75 162.194 28.3611C162.519 27.9722 162.843 27.713 163.167 27.5833C163.491 27.3889 163.815 27.162 164.139 26.9028C164.528 26.9028 165.046 26.7731 165.694 26.5139C166.472 26.0602 167.056 25.8657 167.444 25.9306C167.898 25.9954 168.352 25.963 168.806 25.8333C169.389 26.0926 169.972 26.3194 170.556 26.5139C171.139 26.6435 171.69 26.838 172.208 27.0972C172.856 27.2269 173.375 27.3241 173.764 27.3889C174.218 27.4537 174.639 27.5509 175.028 27.6806C175.481 27.7454 175.87 27.875 176.194 28.0694C176.519 28.2639 176.745 28.5556 176.875 28.9444C177.134 29.0741 177.296 29.2361 177.361 29.4306C177.426 29.625 177.523 29.8519 177.653 30.1111C177.782 30.5 177.75 30.8889 177.556 31.2778C177.426 31.6667 177.394 32.088 177.458 32.5417C177.458 32.8009 177.491 33.0278 177.556 33.2222C177.62 33.4167 177.653 33.6111 177.653 33.8056C177.588 34.3241 177.426 34.7778 177.167 35.1667C176.972 35.5556 176.875 36.0093 176.875 36.5278C176.81 37.2407 176.745 37.7593 176.681 38.0833C176.616 38.4074 176.583 38.7639 176.583 39.1528C176.778 39.8009 176.843 40.1574 176.778 40.2222C176.778 40.287 176.778 40.3519 176.778 40.4167C176.778 40.7407 176.778 41.0648 176.778 41.3889C176.843 41.713 176.875 42.037 176.875 42.3611C176.875 42.8148 176.843 43.3333 176.778 43.9167C176.713 44.5 176.648 45.0509 176.583 45.5694C176.519 46.088 176.324 46.6389 176 47.2222C175.741 47.7407 175.644 48.3241 175.708 48.9722C175.255 49.5556 175.093 50.1389 175.222 50.7222C175.417 51.2407 175.579 51.7917 175.708 52.375C175.773 52.6343 175.773 52.9259 175.708 53.25C175.708 53.5093 175.708 53.7361 175.708 53.9306C175.838 54.4491 175.838 54.838 175.708 55.0972C175.644 55.6157 175.676 56.1667 175.806 56.75C175.935 57.3333 175.87 57.787 175.611 58.1111C175.676 58.4352 175.676 58.7269 175.611 58.9861C175.546 59.2454 175.546 59.5046 175.611 59.7639C175.611 60.6065 175.806 61.3519 176.194 62C176.583 62.5833 176.94 63.1667 177.264 63.75C177.523 63.9444 177.815 64.1065 178.139 64.2361C178.463 64.3009 178.819 64.4306 179.208 64.625C179.403 64.7546 179.565 64.8843 179.694 65.0139C179.824 65.1435 179.954 65.2407 180.083 65.3056C180.213 65.3704 180.407 65.4028 180.667 65.4028C180.926 65.4028 181.153 65.4028 181.347 65.4028C182.06 65.4676 182.708 65.4352 183.292 65.3056C183.875 65.1759 184.491 65.0787 185.139 65.0139C185.593 64.8194 186.079 64.625 186.597 64.4306C187.116 64.2361 187.634 64.1389 188.153 64.1389C188.866 63.5556 189.384 63.1667 189.708 62.9722C190.032 62.713 190.259 62.3889 190.389 62ZM180.375 53.7361C180.31 54.3194 179.954 54.838 179.306 55.2917C178.722 55.6806 178.269 55.5185 177.944 54.8056C177.685 54.0926 177.815 53.5741 178.333 53.25C178.917 52.9259 179.435 52.8611 179.889 53.0556L180.375 53.7361ZM203.028 58.6944C202.704 58.3704 202.477 58.0787 202.347 57.8194C202.282 57.5602 202.282 57.2685 202.347 56.9444C202.347 56.6204 202.347 56.3287 202.347 56.0694C202.412 55.7454 202.574 55.5185 202.833 55.3889C202.704 55.1296 202.769 54.838 203.028 54.5139C203.352 54.1898 203.644 54.0602 203.903 54.125C204.227 53.8657 204.519 53.8657 204.778 54.125C205.102 54.3194 205.394 54.4491 205.653 54.5139C205.977 55.162 206.171 55.9398 206.236 56.8472C206.366 57.6898 206.269 58.4676 205.944 59.1806C204.972 59.2454 204.324 59.2778 204 59.2778C203.676 59.2778 203.352 59.1481 203.028 58.8889V58.6944ZM179.306 61.8056C178.463 61.0278 178.139 60.1852 178.333 59.2778C178.463 58.7593 178.755 58.4028 179.208 58.2083C179.727 58.0139 180.181 57.9815 180.569 58.1111C180.699 58.2407 180.861 58.5 181.056 58.8889C181.315 59.213 181.477 59.537 181.542 59.8611C181.606 60.3148 181.542 60.7037 181.347 61.0278C181.153 61.3519 180.926 61.6435 180.667 61.9028C179.759 62.0324 179.306 62 179.306 61.8056ZM165.792 76.1944C165.792 75.8056 165.662 75.4491 165.403 75.125C165.208 74.8009 165.176 74.3148 165.306 73.6667C166.083 73.1481 166.634 72.8565 166.958 72.7917C167.347 72.662 167.704 72.6944 168.028 72.8889C168.352 73.213 168.644 73.5694 168.903 73.9583C169.162 74.3472 169.259 74.8981 169.194 75.6111C168.87 76.3889 168.384 76.7778 167.736 76.7778C167.347 76.8426 166.991 76.7454 166.667 76.4861C166.407 76.2917 166.116 76.1944 165.792 76.1944ZM234.431 75.4167C234.106 75.0926 233.718 74.8657 233.264 74.7361C232.81 74.6065 232.519 74.2824 232.389 73.7639C231.87 73.5046 231.384 73.1157 230.931 72.5972C230.477 72.0787 229.861 71.7546 229.083 71.625C228.694 71.5602 228.37 71.4306 228.111 71.2361C227.917 70.9769 227.657 70.8472 227.333 70.8472C226.944 70.5231 226.62 70.2639 226.361 70.0694C226.167 69.8102 225.81 69.6481 225.292 69.5833C224.968 69.4537 224.579 69.2917 224.125 69.0972C223.671 68.838 223.218 68.8056 222.764 69C222.699 69.4537 222.602 69.8426 222.472 70.1667C222.407 70.4907 222.343 70.8796 222.278 71.3333C222.343 71.6574 222.505 71.9491 222.764 72.2083C223.023 72.4028 223.12 72.662 223.056 72.9861C223.38 73.3102 223.477 73.6343 223.347 73.9583C223.282 74.2824 223.25 74.6389 223.25 75.0278C222.926 75.2222 222.764 75.5787 222.764 76.0972C222.505 76.4213 222.245 76.713 221.986 76.9722C221.727 77.2315 221.532 77.5556 221.403 77.9444C221.079 78.0741 220.819 78.2361 220.625 78.4306C220.495 78.625 220.269 78.7546 219.944 78.8194C219.491 78.9491 219.037 78.9167 218.583 78.7222C218.194 78.5278 217.773 78.3333 217.319 78.1389C216.995 77.75 216.639 77.4583 216.25 77.2639C215.861 77.0694 215.569 76.7778 215.375 76.3889C215.051 76 214.824 75.7407 214.694 75.6111C214.63 75.4815 214.597 75.3194 214.597 75.125C214.079 75.0602 213.69 74.8657 213.431 74.5417C213.236 74.2176 212.944 73.9583 212.556 73.7639C211.972 72.5972 211.875 71.3333 212.264 69.9722C212.653 68.6111 213.269 67.5417 214.111 66.7639C214.046 66.375 213.981 65.9861 213.917 65.5972C213.917 65.1435 213.949 64.7546 214.014 64.4306C214.079 64.1713 214.144 63.9444 214.208 63.75C214.273 63.5556 214.306 63.3611 214.306 63.1667C214.241 62.4537 214.208 62 214.208 61.8056C214.273 61.6111 214.306 61.4167 214.306 61.2222C214.306 60.7685 214.208 60.3148 214.014 59.8611C213.884 59.4074 213.852 58.9213 213.917 58.4028C213.981 58.0787 214.014 57.787 214.014 57.5278C214.014 57.2037 213.949 56.9769 213.819 56.8472C214.014 55.5509 214.046 54.287 213.917 53.0556C213.787 51.7593 213.981 50.6574 214.5 49.75C214.63 48.6481 214.63 47.5463 214.5 46.4444C214.435 45.3426 214.532 44.338 214.792 43.4306C214.662 43.0417 214.63 42.6204 214.694 42.1667C214.759 41.6481 214.727 41.2269 214.597 40.9028C214.662 40.5139 214.694 40.1574 214.694 39.8333C214.759 39.4444 214.954 39.1852 215.278 39.0556C215.407 38.7963 215.375 38.537 215.181 38.2778C215.051 38.0185 214.986 37.7269 214.986 37.4028C214.986 36.9491 215.051 36.5278 215.181 36.1389C215.31 35.75 215.31 35.3287 215.181 34.875C215.375 34.162 215.569 33.6111 215.764 33.2222C215.958 32.8333 216.12 32.3796 216.25 31.8611C215.926 31.7315 215.764 31.5046 215.764 31.1806C215.764 30.7917 215.634 30.5324 215.375 30.4028C215.44 30.0787 215.407 29.7546 215.278 29.4306C215.148 29.0417 215.083 28.6204 215.083 28.1667C215.083 27.8426 215.116 27.5185 215.181 27.1944C215.245 26.8704 215.31 26.5139 215.375 26.125C215.245 25.8009 215.245 25.4769 215.375 25.1528C215.505 24.8287 215.44 24.537 215.181 24.2778C215.181 23.3704 215.148 22.5278 215.083 21.75C215.083 20.9722 215.116 20.1296 215.181 19.2222C215.116 18.7685 215.083 18.3796 215.083 18.0556C215.083 17.6667 215.019 17.3102 214.889 16.9861C215.019 16.4676 214.986 15.9815 214.792 15.5278C214.597 15.0093 214.435 14.5556 214.306 14.1667C213.528 13.8426 213.106 13.1944 213.042 12.2222C212.977 11.1852 212.88 10.2454 212.75 9.40278C212.815 9.01389 212.815 8.49537 212.75 7.84722C212.685 7.19907 212.718 6.61574 212.847 6.09722C212.977 5.83796 213.139 5.5787 213.333 5.31944C213.593 5.06018 213.755 4.76852 213.819 4.44444C214.273 4.18518 214.727 3.99074 215.181 3.86111C215.699 3.66667 216.12 3.375 216.444 2.98611C216.833 2.9213 217.157 2.82407 217.417 2.69444C217.676 2.5 218 2.33796 218.389 2.20833C218.907 1.68981 219.361 1.49537 219.75 1.625C220.204 1.75463 220.657 1.88426 221.111 2.01389C221.565 2.14352 221.986 2.24074 222.375 2.30555C222.829 2.37037 223.218 2.46759 223.542 2.59722C224.384 2.79167 225.032 3.08333 225.486 3.47222C226.005 3.86111 226.491 4.25 226.944 4.63889C227.398 5.74074 227.657 6.51852 227.722 6.97222C227.852 7.36111 227.917 7.91204 227.917 8.625C227.981 9.0787 228.046 9.5 228.111 9.88889C228.176 10.213 228.176 10.6019 228.111 11.0556C227.917 11.7037 227.819 12.125 227.819 12.3194C227.884 12.5139 227.884 12.6759 227.819 12.8056C227.755 12.9352 227.657 13.0972 227.528 13.2917C227.398 13.4861 227.333 13.7454 227.333 14.0694C227.204 15.4306 226.718 16.7269 225.875 17.9583C225.486 18.9306 225.194 19.6435 225 20.0972C224.806 20.4861 224.611 20.9722 224.417 21.5556C224.546 22.0741 224.579 22.5926 224.514 23.1111C224.449 23.6296 224.352 24.1481 224.222 24.6667C224.157 25.3148 224.093 25.6713 224.028 25.7361C224.028 25.8009 224.028 25.8657 224.028 25.9306C224.093 26.125 224.157 26.3194 224.222 26.5139C224.287 26.6435 224.287 26.8056 224.222 27C224.157 27.1944 224.06 27.3889 223.931 27.5833C223.801 27.7778 223.736 27.9722 223.736 28.1667C223.671 28.3611 223.671 28.6528 223.736 29.0417C223.801 29.3657 223.736 29.5926 223.542 29.7222C223.412 30.6296 223.347 31.5046 223.347 32.3472C223.347 33.125 223.25 33.838 223.056 34.4861C223.056 35.3287 222.991 36.1389 222.861 36.9167C222.796 37.6944 222.991 38.3426 223.444 38.8611C223.963 38.7963 224.255 38.7315 224.319 38.6667C224.449 38.6019 224.579 38.5694 224.708 38.5694C225.356 37.9213 226.037 37.338 226.75 36.8194C227.074 36.0417 227.56 35.5556 228.208 35.3611C228.792 34.9074 229.343 34.5509 229.861 34.2917C230.444 33.9676 230.995 33.6435 231.514 33.3194C232.292 33.125 232.94 32.8333 233.458 32.4444C234.042 31.9907 234.722 31.6343 235.5 31.375C236.019 31.375 236.472 31.2778 236.861 31.0833C237.444 30.9537 237.963 30.8889 238.417 30.8889C238.87 30.8889 239.324 30.9537 239.778 31.0833C240.231 31.1481 240.62 31.2454 240.944 31.375C241.333 31.4398 241.69 31.4398 242.014 31.375C242.144 31.5046 242.338 31.6019 242.597 31.6667C242.856 31.6667 242.986 31.7963 242.986 32.0556C243.375 32.3148 243.634 32.5093 243.764 32.6389C243.894 32.7037 244.023 32.8333 244.153 33.0278C244.736 33.2222 245.125 33.6435 245.319 34.2917C245.514 34.9398 245.903 35.4259 246.486 35.75C247.069 36.3981 247.523 36.9167 247.847 37.3056C248.171 37.6944 248.398 38.1806 248.528 38.7639C249.111 38.9583 249.5 39.3796 249.694 40.0278C250.019 40.0926 250.245 40.3843 250.375 40.9028C250.764 41.0324 251.023 41.2593 251.153 41.5833C251.347 41.8426 251.606 42.037 251.931 42.1667C252.06 42.6852 252.19 43.1713 252.319 43.625C252.514 44.0787 252.676 44.5972 252.806 45.1806C253.259 45.8287 253.583 46.6065 253.778 47.5139C254.231 48.6806 254.588 49.8148 254.847 50.9167C255.171 52.0185 255.366 53.1528 255.431 54.3194C255.495 54.838 255.56 55.3565 255.625 55.875C255.755 56.3287 255.884 56.8472 256.014 57.4306C255.949 58.0139 255.917 58.5972 255.917 59.1806C255.981 59.7639 255.949 60.3472 255.819 60.9306C255.884 61.2546 255.884 61.5463 255.819 61.8056C255.755 62.0648 255.722 62.3565 255.722 62.6806C255.269 63.2639 254.944 63.912 254.75 64.625C254.556 65.338 254.199 65.9537 253.681 66.4722C252.708 67.25 252.093 67.9954 251.833 68.7083C251.509 68.9676 251.25 69.2917 251.056 69.6806C250.861 70.0694 250.602 70.3935 250.278 70.6528C250.213 71.1065 250.051 71.4306 249.792 71.625C249.532 71.8194 249.37 72.0787 249.306 72.4028C248.333 73.0509 247.75 73.6343 247.556 74.1528C247.361 74.6065 246.972 74.8333 246.389 74.8333C246.065 74.963 245.741 75.125 245.417 75.3194C245.157 75.5139 244.866 75.7083 244.542 75.9028C244.218 76.2269 243.829 76.3889 243.375 76.3889C242.986 76.3889 242.597 76.5509 242.208 76.875C241.431 76.875 241.009 76.9074 240.944 76.9722C240.944 77.037 240.88 77.0694 240.75 77.0694C240.102 76.875 239.713 76.7454 239.583 76.6806C239.519 76.6806 239.421 76.7454 239.292 76.875C238.514 76.5509 237.704 76.3565 236.861 76.2917C236.083 76.2269 235.403 75.9352 234.819 75.4167H234.431ZM239.972 39.8333C239.519 39.963 239.13 40.0278 238.806 40.0278C238.546 39.963 238.222 39.9954 237.833 40.125C237.574 40.1898 237.25 40.3194 236.861 40.5139C236.472 40.7083 236.083 40.838 235.694 40.9028C235.046 41.0324 234.625 41.1944 234.431 41.3889C233.847 41.5833 233.329 41.8426 232.875 42.1667C232.421 42.4259 231.935 42.6852 231.417 42.9444C231.093 43.3981 230.704 43.8519 230.25 44.3056C229.861 44.6944 229.537 45.1806 229.278 45.7639C228.954 46.2176 228.694 46.4769 228.5 46.5417C228.176 46.6713 227.917 46.8657 227.722 47.125C227.593 47.3843 227.431 47.6435 227.236 47.9028C226.977 48.162 226.782 48.4861 226.653 48.875C226.588 49.2639 226.394 49.5231 226.069 49.6528C225.94 50.1713 225.713 50.6898 225.389 51.2083C225.065 51.7269 224.968 52.3426 225.097 53.0556C225.356 53.7037 225.486 54.1574 225.486 54.4167C225.486 54.6111 225.519 54.838 225.583 55.0972C225.713 56.3935 225.94 57.5278 226.264 58.5C226.847 59.213 227.431 59.9259 228.014 60.6389C228.662 61.3519 229.343 62.0648 230.056 62.7778C230.38 62.9074 230.671 63.0046 230.931 63.0694C231.19 63.0694 231.384 63.0046 231.514 62.875C231.838 63.0046 232.194 63.0694 232.583 63.0694C233.037 63.0694 233.458 63.1343 233.847 63.2639C234.106 63.3935 234.431 63.5556 234.819 63.75C235.208 63.8796 235.565 64.0093 235.889 64.1389C236.602 64.5278 237.056 64.7222 237.25 64.7222C237.509 64.6574 237.704 64.6574 237.833 64.7222C238.352 64.8519 238.741 64.9815 239 65.1111C239.259 65.1759 239.616 65.2083 240.069 65.2083C240.394 65.2083 240.75 65.2407 241.139 65.3056C241.528 65.3704 241.852 65.3704 242.111 65.3056C242.694 65.1759 243.116 65.0139 243.375 64.8194C243.699 64.5602 243.991 64.2685 244.25 63.9444C244.639 63.8148 244.963 63.6528 245.222 63.4583C245.481 63.2639 245.773 63.1019 246.097 62.9722C246.421 62.2593 246.843 61.7083 247.361 61.3194C247.685 60.7361 247.944 60.1204 248.139 59.4722C248.333 58.7593 248.593 58.0787 248.917 57.4306C248.917 57.1065 248.917 56.75 248.917 56.3611C248.981 55.9722 249.079 55.6806 249.208 55.4861C249.079 55.2917 249.014 55.0972 249.014 54.9028C249.079 54.6435 249.046 54.4491 248.917 54.3194C248.981 53.8009 248.981 53.25 248.917 52.6667C248.852 52.0185 248.787 51.4028 248.722 50.8194C248.657 50.5602 248.657 50.3333 248.722 50.1389C248.787 49.8796 248.787 49.6528 248.722 49.4583C248.722 49.1343 248.69 48.9074 248.625 48.7778C248.56 48.5833 248.495 48.3889 248.431 48.1944C248.301 47.8704 248.171 47.5787 248.042 47.3194C247.977 47.0602 247.88 46.8009 247.75 46.5417C247.62 46.2824 247.491 46.0556 247.361 45.8611C247.231 45.6667 247.167 45.4398 247.167 45.1806C246.648 44.5324 246.227 43.9491 245.903 43.4306C245.579 42.912 245.222 42.4907 244.833 42.1667C244.574 41.9722 244.315 41.8102 244.056 41.6806C243.796 41.5509 243.602 41.3241 243.472 41C243.148 41 242.889 40.9352 242.694 40.8056C242.5 40.6759 242.338 40.5463 242.208 40.4167C241.755 40.6111 241.333 40.5463 240.944 40.2222C240.62 39.8333 240.296 39.7037 239.972 39.8333ZM236.764 25.5417C236.958 25.9954 236.926 26.4815 236.667 27C236.472 27.5185 236.181 27.8102 235.792 27.875C235.468 28.0694 235.111 28.1667 234.722 28.1667C234.528 27.9074 234.333 27.5185 234.139 27C233.815 26.4815 233.653 26.125 233.653 25.9306C233.782 25.7361 233.977 25.6389 234.236 25.6389C234.56 25.5741 234.917 25.4769 235.306 25.3472C235.824 25.2824 236.31 25.3472 236.764 25.5417ZM231.319 30.3056C230.995 30.3056 230.704 30.4028 230.444 30.5972C230.25 30.7917 229.991 30.8889 229.667 30.8889C229.537 31.0185 229.375 31.1806 229.181 31.375C229.051 31.5694 228.824 31.6019 228.5 31.4722C228.111 31.1481 227.917 30.8889 227.917 30.6944C227.917 30.4352 227.917 30.2083 227.917 30.0139C227.787 29.8843 227.722 29.6898 227.722 29.4306C227.722 29.1713 227.625 28.9444 227.431 28.75C227.236 28.1019 227.269 27.5509 227.528 27.0972C227.852 26.6435 228.208 26.4491 228.597 26.5139C229.116 26.2546 229.44 26.125 229.569 26.125C229.764 26.125 230.023 26.0602 230.347 25.9306C230.542 26.0602 230.736 26.1898 230.931 26.3194C231.19 26.3843 231.417 26.4815 231.611 26.6111C231.741 26.9352 231.87 27.2269 232 27.4861C232.194 27.7454 232.259 28.0694 232.194 28.4583C232.13 28.7824 232 29.0417 231.806 29.2361C231.611 29.4306 231.449 29.625 231.319 29.8194V30.3056ZM237.347 45.6667C237.218 45.9907 237.12 46.412 237.056 46.9306C236.991 47.4491 236.699 47.6435 236.181 47.5139C235.856 47.4491 235.63 47.3519 235.5 47.2222C235.37 47.0278 235.241 46.8009 235.111 46.5417C235.241 46.0231 235.532 45.6991 235.986 45.5694C236.44 45.375 236.894 45.4074 237.347 45.6667ZM233.944 49.1667C234.074 49.6852 234.009 50.1713 233.75 50.625C233.491 51.0787 233.199 51.4676 232.875 51.7917C232.94 52.1157 232.907 52.3426 232.778 52.4722C232.713 52.537 232.681 52.6991 232.681 52.9583C232.356 53.6713 232.162 54.0278 232.097 54.0278C232.032 54.0278 231.968 54.0926 231.903 54.2222C231.644 54.4167 231.352 54.7407 231.028 55.1944C230.704 55.5833 230.25 55.713 229.667 55.5833C229.472 55.5185 229.31 55.3889 229.181 55.1944C229.051 54.9352 228.921 54.7407 228.792 54.6111C228.792 53.6389 228.856 52.7639 228.986 51.9861C229.181 51.1435 229.537 50.463 230.056 49.9444C230.185 49.5556 230.282 49.2963 230.347 49.1667C230.477 49.037 230.606 48.9074 230.736 48.7778C231.06 48.9074 231.255 48.875 231.319 48.6806C231.449 48.4861 231.611 48.3565 231.806 48.2917C232.259 48.162 232.648 48.1944 232.972 48.3889C233.296 48.5833 233.62 48.8426 233.944 49.1667ZM208.764 74.25C209.088 74.1852 209.412 74.2824 209.736 74.5417C210.06 74.7361 210.352 74.9306 210.611 75.125C211 75.838 211 76.4861 210.611 77.0694C210.481 77.1991 210.287 77.3611 210.028 77.5556C209.833 77.75 209.639 77.8472 209.444 77.8472C208.926 77.5231 208.537 77.3611 208.278 77.3611C208.148 77.2963 208.019 77.1343 207.889 76.875C207.759 76.6806 207.63 76.5185 207.5 76.3889C207.37 76.2593 207.338 76.0648 207.403 75.8056C207.468 75.4815 207.435 75.2222 207.306 75.0278C207.435 74.7037 207.63 74.4769 207.889 74.3472C208.148 74.2176 208.44 74.1852 208.764 74.25ZM228.792 76.5833C228.921 77.1019 228.986 77.7176 228.986 78.4306C228.986 79.1435 228.63 79.5324 227.917 79.5972C227.593 79.9861 227.171 80.0833 226.653 79.8889C226.199 79.7593 225.778 79.5648 225.389 79.3056C225.13 78.6574 225.032 78.2361 225.097 78.0417C225.227 77.8472 225.259 77.6528 225.194 77.4583C225.454 77.3935 225.648 77.2963 225.778 77.1667C225.907 77.037 226.069 76.875 226.264 76.6806C226.588 76.5509 226.977 76.4213 227.431 76.2917C227.884 76.2269 228.338 76.3241 228.792 76.5833ZM268.75 11.9306C268.685 12.3194 268.75 12.6111 268.944 12.8056C269.139 13 269.204 13.2917 269.139 13.6806C268.426 13.9398 268.037 14.0694 267.972 14.0694C267.972 14.0694 267.94 14.1019 267.875 14.1667C267.227 14.1019 266.806 14.0694 266.611 14.0694C266.417 14.0694 266.255 13.9074 266.125 13.5833C266.514 12.8704 266.903 12.3519 267.292 12.0278C267.745 11.7037 268.231 11.6713 268.75 11.9306ZM264.569 14.8472C264.894 14.9769 265.12 15.1713 265.25 15.4306C265.38 15.6898 265.509 15.9815 265.639 16.3056C265.704 17.1481 265.444 17.7315 264.861 18.0556C264.343 18.3796 263.824 18.8009 263.306 19.3194C263.111 19.2546 262.917 19.2546 262.722 19.3194C262.593 19.3843 262.366 19.3843 262.042 19.3194C261.847 19.125 261.653 18.8009 261.458 18.3472C261.523 17.5046 261.588 16.8889 261.653 16.5C261.718 16.1111 261.815 15.7546 261.944 15.4306C262.657 15.1065 263.176 14.9444 263.5 14.9444C263.889 14.8796 264.245 14.8472 264.569 14.8472ZM277.889 58.6944C278.343 58.4352 278.764 58.1759 279.153 57.9167C279.542 57.6574 279.995 57.3657 280.514 57.0417C280.644 56.7176 280.773 56.4907 280.903 56.3611C281.097 56.1667 281.292 55.9722 281.486 55.7778C281.745 54.9352 281.843 54.287 281.778 53.8333C281.713 53.3796 281.745 52.8935 281.875 52.375C282.653 51.8565 283.204 51.5 283.528 51.3056C283.917 51.1111 284.306 51.0787 284.694 51.2083C284.954 51.0787 285.213 51.0139 285.472 51.0139C285.796 50.9491 286.023 50.9815 286.153 51.1111C286.995 50.7222 287.87 50.5602 288.778 50.625C289.037 50.6898 289.231 50.787 289.361 50.9167C289.556 51.0463 289.75 51.1759 289.944 51.3056C290.269 51.4352 290.593 51.5324 290.917 51.5972C291.306 51.662 291.63 51.7917 291.889 51.9861C292.278 52.375 292.505 52.6667 292.569 52.8611C293.088 53.5741 293.315 54.0602 293.25 54.3194C293.25 54.5139 293.347 54.7083 293.542 54.9028C293.412 55.4213 293.38 55.8102 293.444 56.0694C293.509 56.3287 293.509 56.7176 293.444 57.2361C293.444 58.0787 293.282 58.7269 292.958 59.1806C292.31 59.7639 291.921 60.088 291.792 60.1528C291.662 60.2176 291.532 60.3148 291.403 60.4444C291.014 60.8981 290.69 61.1898 290.431 61.3194C290.171 61.3843 289.944 61.5463 289.75 61.8056C289.556 61.9352 289.394 62.0972 289.264 62.2917C289.199 62.4213 289.069 62.5509 288.875 62.6806C288.81 62.875 288.713 63.0694 288.583 63.2639C288.454 63.3935 288.324 63.5556 288.194 63.75C288.194 64.1389 288.097 64.463 287.903 64.7222C287.708 64.9815 287.449 65.2083 287.125 65.4028C286.866 65.5972 286.574 65.8241 286.25 66.0833C285.991 66.2778 285.796 66.5694 285.667 66.9583C285.343 66.9583 285.051 67.1204 284.792 67.4444C284.597 67.7037 284.338 67.8333 284.014 67.8333C282.977 68.4167 282.231 68.838 281.778 69.0972C281.324 69.2917 280.806 69.4537 280.222 69.5833C279.574 69.8426 279.088 69.9074 278.764 69.7778C278.44 69.5833 278.083 69.4861 277.694 69.4861C277.37 69.4213 277.046 69.4537 276.722 69.5833C276.398 69.6481 276.074 69.6806 275.75 69.6806C274.843 69.6157 274.259 69.4861 274 69.2917C273.741 69.0972 273.449 68.9352 273.125 68.8056C272.736 68.8056 272.477 68.7731 272.347 68.7083C272.282 68.5787 272.185 68.5139 272.056 68.5139C271.019 68.3843 270.338 68.0926 270.014 67.6389C269.69 67.1852 269.269 66.8611 268.75 66.6667C268.102 65.7593 267.389 64.9491 266.611 64.2361C265.833 63.4583 265.25 62.5185 264.861 61.4167C264.602 61.1574 264.407 60.8657 264.278 60.5417C264.148 60.2176 264.019 59.8935 263.889 59.5694C263.694 59.375 263.5 59.0509 263.306 58.5972C263.176 58.1435 262.949 57.7222 262.625 57.3333C262.366 56.8796 262.171 56.4259 262.042 55.9722C261.977 55.7778 261.944 55.5833 261.944 55.3889C262.009 55.1296 261.944 54.9352 261.75 54.8056C261.685 54.3519 261.62 53.8333 261.556 53.25C261.491 52.6667 261.394 52.1806 261.264 51.7917C261.264 51.2731 261.296 50.7546 261.361 50.2361C261.426 49.7176 261.426 49.1667 261.361 48.5833C261.361 48 261.296 47.4167 261.167 46.8333C261.037 46.25 260.972 45.6991 260.972 45.1806C260.972 44.9861 261.005 44.7917 261.069 44.5972C261.134 44.4028 261.167 44.2407 261.167 44.1111C261.167 43.463 261.264 42.75 261.458 41.9722C261.718 41.1296 262.009 40.3519 262.333 39.6389C262.333 39.3796 262.301 39.1204 262.236 38.8611C262.171 38.6019 262.204 38.375 262.333 38.1806C262.009 37.662 261.977 37.0139 262.236 36.2361C262.106 35.7176 262.042 35.2639 262.042 34.875C262.106 34.4861 262.171 34.0324 262.236 33.5139C262.106 33.3194 262.042 32.9306 262.042 32.3472C262.106 31.2454 262.204 30.1111 262.333 28.9444C262.463 27.713 262.69 26.6435 263.014 25.7361C263.014 25.3472 263.111 25.0231 263.306 24.7639C263.565 24.4398 263.824 24.0509 264.083 23.5972C264.343 23.0787 264.537 22.7546 264.667 22.625C264.796 22.4954 264.894 22.3657 264.958 22.2361C265.153 21.8472 265.315 21.6204 265.444 21.5556C265.574 21.4259 265.639 21.2639 265.639 21.0694C266.611 19.9028 267.681 19.0602 268.847 18.5417C269.56 18.088 270.079 17.8287 270.403 17.7639C270.727 17.6991 271.051 17.6019 271.375 17.4722C271.634 17.3426 271.958 17.213 272.347 17.0833C272.801 16.9537 273.19 16.9537 273.514 17.0833C273.903 16.8889 274.389 16.7269 274.972 16.5972C275.556 16.4028 276.074 16.3056 276.528 16.3056C276.917 15.9815 277.338 15.8194 277.792 15.8194C278.31 15.8194 278.829 15.8843 279.347 16.0139C279.931 16.2083 280.287 16.3056 280.417 16.3056C280.546 16.2407 280.676 16.2083 280.806 16.2083C281.259 16.2083 281.681 16.3056 282.069 16.5C282.782 16.5 283.528 16.5972 284.306 16.7917C285.083 16.9861 285.731 17.2454 286.25 17.5694C286.38 17.8935 286.606 18.1528 286.931 18.3472C287.255 18.4769 287.481 18.7037 287.611 19.0278C287.935 19.1574 288.227 19.3519 288.486 19.6111C288.81 19.8056 289.037 20.0972 289.167 20.4861C289.88 20.8102 290.398 21.3287 290.722 22.0417C291.046 22.6898 291.403 23.2731 291.792 23.7917C291.727 24.1157 291.759 24.4074 291.889 24.6667C292.019 24.8611 292.083 25.1528 292.083 25.5417C292.278 25.8009 292.472 26.0278 292.667 26.2222C292.861 26.4167 293.056 26.6435 293.25 26.9028C293.25 27.4861 293.315 28.037 293.444 28.5556C293.639 29.0741 293.736 29.5926 293.736 30.1111C293.995 31.0185 294.093 32.088 294.028 33.3194C294.028 33.7083 293.963 34.1296 293.833 34.5833C293.704 34.9722 293.639 35.3935 293.639 35.8472C293.574 36.3657 293.639 36.8843 293.833 37.4028C294.028 37.8565 293.995 38.3426 293.736 38.8611C293.931 39.963 293.898 40.9028 293.639 41.6806C293.38 42.3935 293.185 43.1713 293.056 44.0139C292.926 44.2083 292.829 44.4352 292.764 44.6944C292.764 44.9537 292.634 45.1481 292.375 45.2778C292.245 45.4722 292.051 45.6343 291.792 45.7639C291.532 45.8935 291.241 46.0231 290.917 46.1528C289.944 46.6713 289.005 46.9954 288.097 47.125C287.708 47.2546 287.287 47.3194 286.833 47.3194C286.38 47.2546 285.894 47.1898 285.375 47.125C284.532 46.9306 283.884 46.8981 283.431 47.0278C283.042 47.1574 282.653 47.2546 282.264 47.3194C281.81 47.4491 281.389 47.5463 281 47.6111C280.611 47.6759 280.157 47.6435 279.639 47.5139C278.991 47.838 278.245 47.9028 277.403 47.7083C276.56 47.7083 275.912 47.6759 275.458 47.6111C275.069 47.4815 274.778 47.3194 274.583 47.125C273.935 46.9954 273.222 46.8981 272.444 46.8333C271.731 46.7685 271.116 46.7361 270.597 46.7361C270.079 46.9954 269.787 47.4815 269.722 48.1944C269.657 48.9074 269.56 49.6204 269.431 50.3333C269.366 50.6574 269.301 51.0463 269.236 51.5C269.236 51.8889 269.301 52.2778 269.431 52.6667C269.755 53.3148 269.981 54.0602 270.111 54.9028C270.241 55.6806 270.435 56.4259 270.694 57.1389C271.019 57.3981 271.245 57.787 271.375 58.3056C272.023 58.5 272.671 58.5972 273.319 58.5972C273.838 58.2731 274.356 58.2407 274.875 58.5C275.394 58.7593 275.912 58.7269 276.431 58.4028C276.56 58.5972 276.787 58.662 277.111 58.5972C277.435 58.5324 277.694 58.5648 277.889 58.6944ZM284.694 28.75C284.241 27.8426 283.819 26.9676 283.431 26.125C283.106 25.2824 282.426 24.7639 281.389 24.5694C280.87 24.1806 280.546 23.9861 280.417 23.9861C279.898 23.8565 279.38 23.7269 278.861 23.5972C278.407 23.4676 277.921 23.338 277.403 23.2083C276.625 23.0787 276.139 23.1435 275.944 23.4028C275.75 23.5972 275.458 23.6944 275.069 23.6944C274.94 23.8241 274.81 23.9861 274.681 24.1806C274.551 24.375 274.324 24.4722 274 24.4722C273.481 25.1204 273.157 25.6389 273.028 26.0278C272.963 26.4167 272.866 26.8056 272.736 27.1944C272.931 27.3889 272.995 27.6481 272.931 27.9722C272.866 28.2315 272.833 28.5231 272.833 28.8472C272.898 29.2361 272.995 29.625 273.125 30.0139C273.319 30.4028 273.352 30.7917 273.222 31.1806C273.417 31.4398 273.481 31.7639 273.417 32.1528C273.352 32.5417 273.384 32.8981 273.514 33.2222C273.19 33.9352 273.028 34.3565 273.028 34.4861C273.093 34.5509 273.06 34.5833 272.931 34.5833C273.06 35.1667 272.931 35.6852 272.542 36.1389C272.218 36.5278 271.991 37.0463 271.861 37.6944C271.861 38.0833 271.829 38.4398 271.764 38.7639C271.699 39.0231 271.634 39.3472 271.569 39.7361C272.023 39.9306 272.477 40.125 272.931 40.3194C273.449 40.4491 273.87 40.6759 274.194 41C274.519 41 274.778 41.0324 274.972 41.0972C275.231 41.0972 275.458 41 275.653 40.8056C276.301 40.7407 276.981 40.7407 277.694 40.8056C278.407 40.8704 279.12 40.9676 279.833 41.0972C280.546 41.162 281.227 41.2269 281.875 41.2917C282.588 41.2917 283.269 41.2269 283.917 41.0972C284.5 41.0972 284.856 40.9676 284.986 40.7083C285.116 40.3843 285.245 40.0926 285.375 39.8333C285.699 39.5093 285.894 39.1528 285.958 38.7639C286.023 37.7269 286.023 37.1111 285.958 36.9167C285.958 35.9444 285.958 35.2639 285.958 34.875C286.023 34.4213 286.023 34.0324 285.958 33.7083C285.894 32.088 285.537 30.5972 284.889 29.2361L284.694 28.75ZM281.486 39.6389C281.227 39.5093 281.032 39.3472 280.903 39.1528C280.838 38.8935 280.741 38.6991 280.611 38.5694C280.546 38.1157 280.773 37.8241 281.292 37.6944C281.421 37.4352 281.583 37.2083 281.778 37.0139C281.972 36.8194 282.134 36.5602 282.264 36.2361C282.653 36.1713 282.977 36.2685 283.236 36.5278C283.495 36.7222 283.787 36.8519 284.111 36.9167C284.63 37.5 284.694 38.0833 284.306 38.6667C283.917 39.1852 283.431 39.5093 282.847 39.6389C282.329 39.3796 281.875 39.3796 281.486 39.6389ZM294.903 62.4861C295.097 62.6157 295.162 62.7778 295.097 62.9722C295.032 63.1667 294.968 63.3935 294.903 63.6528C294.838 64.0417 294.838 64.3333 294.903 64.5278C294.968 64.6574 294.935 64.8519 294.806 65.1111C294.741 65.2407 294.611 65.4028 294.417 65.5972C294.222 65.7917 294.093 65.9537 294.028 66.0833C293.509 66.7315 293.12 67.0556 292.861 67.0556C292.667 66.9907 292.505 66.9583 292.375 66.9583C291.856 67.2176 291.273 67.3148 290.625 67.25C289.977 67.1204 289.685 66.8287 289.75 66.375C289.75 66.1157 289.88 65.8889 290.139 65.6944C290.398 65.5 290.593 65.3056 290.722 65.1111C290.917 64.8519 291.014 64.625 291.014 64.4306C291.079 64.1713 291.176 63.9444 291.306 63.75C292.083 63.037 292.731 62.6806 293.25 62.6806C293.769 62.6157 294.319 62.5509 294.903 62.4861ZM261.75 65.8889C261.944 65.7593 262.074 65.5972 262.139 65.4028C262.204 65.2083 262.301 65.0463 262.431 64.9167C263.014 64.787 263.338 64.7222 263.403 64.7222C263.532 64.7222 263.662 64.6574 263.792 64.5278C264.116 64.6574 264.375 64.8194 264.569 65.0139C264.829 65.1435 265.153 65.2407 265.542 65.3056C266.125 65.6944 266.255 66.1806 265.931 66.7639C265.606 67.3472 265.347 67.8657 265.153 68.3194C263.921 68.5139 262.755 68.3519 261.653 67.8333C261.523 67.4444 261.523 67.1204 261.653 66.8611C261.782 66.537 261.815 66.213 261.75 65.8889Z" fill="black"/>
</svg>
