<svg width="186" height="47" viewBox="0 0 186 47" fill="none" xmlns="http://www.w3.org/2000/svg">
<path d="M17.375 47L14.875 17.8438L9.53125 44.125C6.92708 44.7292 4.75 45.0312 3 45.0312C1 45.0312 0 44.8021 0 44.3438V44.3125C2.58333 35.25 4.46875 23.8958 5.65625 10.25L6.28125 3.09375C9.38542 2.19792 12.0833 1.52083 14.375 1.0625C15.3333 0.875 17.0625 0.583333 19.5625 0.1875L21.9375 22.7812L22.4688 19.5312C22.8021 17.3646 23.2083 14.875 23.6875 12.0625C24.875 5.08333 25.6354 1.42708 25.9688 1.09375C26.3438 0.927083 26.875 0.8125 27.5625 0.75L29.4688 0.625C30.1979 0.625 30.9792 0.666667 31.8125 0.75C34.3333 1.08333 36.3854 1.60417 37.9688 2.3125L41.3125 46.4688C38.5 45.7812 34.9062 44.5521 30.5312 42.7812L30.6875 32.7188C30.6875 28.5521 30.5729 23.8542 30.3438 18.625C26.3854 35.3542 24.3438 43.8438 24.2188 44.0938L23.9375 44.0625C23.2917 44.0625 22.5938 44.1979 21.8438 44.4688C21.1146 44.7188 20.4062 45.0417 19.7188 45.4375C19.0312 45.8333 18.4688 46.1875 18.0312 46.5L17.375 47ZM58.0625 45C55.9167 45 54.0521 44.6979 52.4688 44.0938C50.8854 43.4688 49.5417 42.6771 48.4375 41.7188C47.3333 40.7396 46.4479 39.6979 45.7812 38.5938C45.1146 37.4688 44.625 36.3854 44.3125 35.3438C44.0208 34.2812 43.875 33.3958 43.875 32.6875C43.875 29.6042 44.3854 26.9479 45.4062 24.7188C46.4479 22.4896 47.8229 20.6562 49.5312 19.2188C51.2604 17.7812 53.1875 16.7292 55.3125 16.0625C57.4583 15.375 59.6458 15.0312 61.875 15.0312C64.1875 15.0312 66.3542 15.6042 68.375 16.75C70.3958 17.8958 72.0208 19.3958 73.25 21.25C74.5 23.0833 75.125 25.0417 75.125 27.125C75.125 28.8125 74.6354 30.4896 73.6562 32.1562L54.875 34.625C55.25 35.7917 55.9167 36.7604 56.875 37.5312C57.8333 38.2812 59.0625 38.6562 60.5625 38.6562C61.4792 38.6562 62.4896 38.4688 63.5938 38.0938L68.2812 40.5938C67.3646 41.7396 66.125 42.7188 64.5625 43.5312C63 44.3438 61.2292 44.8229 59.25 44.9688L58.0625 45ZM54.9688 29.8438L65.3125 27.7812C65.0208 27.0312 64.4792 26.4479 63.6875 26.0312C62.9167 25.6146 62.0521 25.4062 61.0938 25.4062C59.8854 25.4062 58.6979 25.7604 57.5312 26.4688C56.3646 27.1771 55.5104 28.3021 54.9688 29.8438ZM78 45C76 45 75 44.7708 75 44.3125C77.4375 35.8958 79.2812 25.1562 80.5312 12.0938C80.5521 11.8021 80.5833 11.5104 80.625 11.2188L71.0625 12.625L72.1562 3.25L100.594 0.1875L99.5938 8.375L90.7812 9.6875L84.5 44.0938C81.9167 44.6979 79.75 45 78 45ZM114.469 45L105.75 44.4375C105.896 43.8333 105.99 43.2396 106.031 42.6562C104.24 43.6146 102.354 44.0938 100.375 44.0938C98.1875 44.0521 96.4896 43.4688 95.2812 42.3438C93.2604 40.4479 92.25 37.1667 92.25 32.5C92.25 28.375 93.0208 22.9688 94.5625 16.2812L103.906 15.2188L103.344 18C102.969 19.8542 102.594 22.0417 102.219 24.5625C101.844 27.0833 101.656 29.3438 101.656 31.3438C101.656 34.0104 102.104 35.4479 103 35.6562C103.25 35.6979 103.479 35.7188 103.688 35.7188C104.438 35.7188 105.062 35.5208 105.562 35.125C106.062 34.7083 106.458 34.2396 106.75 33.7188C107.042 33.1979 107.25 32.7292 107.375 32.3125L107.562 31.7188C108.333 26.0104 108.927 20.6458 109.344 15.625C112.573 15.5 115.208 15.375 117.25 15.25L120.281 15.0625C118.177 23.4375 116.24 33.4167 114.469 45ZM119.062 45C120.438 39 121.677 32.6146 122.781 25.8438C123.906 19.0521 124.802 13.1771 125.469 8.21875L126.469 0.78125L136.156 0.1875L135.25 4.0625C134.646 6.64583 134.052 9.91667 133.469 13.875C134.323 13.625 135.219 13.4688 136.156 13.4062L137.312 13.375C139.458 13.375 141.323 13.6979 142.906 14.3438C144.49 14.9896 145.833 15.8229 146.938 16.8438C148.042 17.8646 148.927 18.9583 149.594 20.125C150.26 21.2917 150.74 22.4271 151.031 23.5312C151.344 24.6146 151.5 25.5312 151.5 26.2812C151.5 29.4688 150.99 32.2396 149.969 34.5938C148.969 36.9271 147.625 38.8542 145.938 40.375C144.271 41.8958 142.385 43.0312 140.281 43.7812C138.177 44.5104 136.031 44.875 133.844 44.875C132.469 44.875 131.104 44.7292 129.75 44.4375C126.583 44.5417 124.01 44.6667 122.031 44.8125L119.062 45ZM132.625 33.9688C133.938 33.9688 135.219 33.75 136.469 33.3125C137.74 32.875 138.792 32.1042 139.625 31C140.458 29.8958 140.875 28.3646 140.875 26.4062C140.875 25.3021 140.635 24.2604 140.156 23.2812C139.698 22.3021 139.01 21.5104 138.094 20.9062C137.198 20.2812 136.104 19.9688 134.812 19.9688C134.125 19.9688 133.375 20.0833 132.562 20.3125C131.958 24.7292 131.427 29.25 130.969 33.875C131.51 33.9375 132.062 33.9688 132.625 33.9688ZM168.562 45C166.417 45 164.552 44.6979 162.969 44.0938C161.385 43.4688 160.042 42.6771 158.938 41.7188C157.833 40.7396 156.948 39.6979 156.281 38.5938C155.615 37.4688 155.125 36.3854 154.812 35.3438C154.521 34.2812 154.375 33.3958 154.375 32.6875C154.375 29.6042 154.885 26.9479 155.906 24.7188C156.948 22.4896 158.323 20.6562 160.031 19.2188C161.76 17.7812 163.688 16.7292 165.812 16.0625C167.958 15.375 170.146 15.0312 172.375 15.0312C174.688 15.0312 176.854 15.6042 178.875 16.75C180.896 17.8958 182.521 19.3958 183.75 21.25C185 23.0833 185.625 25.0417 185.625 27.125C185.625 28.8125 185.135 30.4896 184.156 32.1562L165.375 34.625C165.75 35.7917 166.417 36.7604 167.375 37.5312C168.333 38.2812 169.562 38.6562 171.062 38.6562C171.979 38.6562 172.99 38.4688 174.094 38.0938L178.781 40.5938C177.865 41.7396 176.625 42.7188 175.062 43.5312C173.5 44.3438 171.729 44.8229 169.75 44.9688L168.562 45ZM165.469 29.8438L175.812 27.7812C175.521 27.0312 174.979 26.4479 174.188 26.0312C173.417 25.6146 172.552 25.4062 171.594 25.4062C170.385 25.4062 169.198 25.7604 168.031 26.4688C166.865 27.1771 166.01 28.3021 165.469 29.8438Z" fill="black"/>
<path d="M17.375 47L16.3787 47.0854L16.5341 48.8979L17.981 47.7954L17.375 47ZM14.875 17.8438L15.8713 17.7583L13.8951 17.6445L14.875 17.8438ZM9.53125 44.125L9.75725 45.0991L10.3832 44.9539L10.5112 44.3243L9.53125 44.125ZM0 44.3125L-0.961691 44.0384L-1 44.1728V44.3125H0ZM5.65625 10.25L4.66004 10.163L4.66002 10.1633L5.65625 10.25ZM6.28125 3.09375L6.00397 2.13296L5.34474 2.32321L5.28504 3.00674L6.28125 3.09375ZM14.375 1.0625L14.183 0.0810988L14.1789 0.0819193L14.375 1.0625ZM19.5625 0.1875L20.557 0.0829584L20.4469 -0.964981L19.4061 -0.800196L19.5625 0.1875ZM21.9375 22.7812L20.943 22.8858L22.9244 22.9426L21.9375 22.7812ZM22.4688 19.5312L23.4557 19.6926L23.4571 19.6833L22.4688 19.5312ZM23.6875 12.0625L24.6733 12.2305L24.6733 12.2302L23.6875 12.0625ZM25.9688 1.09375L25.5626 0.179938L25.3929 0.255349L25.2616 0.386643L25.9688 1.09375ZM27.5625 0.75L27.4971 -0.247857L27.4845 -0.247033L27.472 -0.245893L27.5625 0.75ZM29.4688 0.625V-0.375H29.436L29.4033 -0.372857L29.4688 0.625ZM31.8125 0.75L31.9436 -0.24137L31.9278 -0.243455L31.912 -0.245037L31.8125 0.75ZM37.9688 2.3125L38.9659 2.23699L38.9209 1.64296L38.3771 1.39968L37.9688 2.3125ZM41.3125 46.4688L41.075 47.4401L42.4137 47.7674L42.3096 46.3932L41.3125 46.4688ZM30.5312 42.7812L29.5314 42.7657L29.5207 43.451L30.1561 43.7082L30.5312 42.7812ZM30.6875 32.7188L31.6874 32.7343L31.6875 32.7265V32.7188H30.6875ZM30.3438 18.625L31.3428 18.5812L29.3706 18.3947L30.3438 18.625ZM24.2188 44.0938L24.1083 45.0876L24.8013 45.1646L25.1132 44.541L24.2188 44.0938ZM23.9375 44.0625L24.0479 43.0686L23.9929 43.0625H23.9375V44.0625ZM21.8438 44.4688L22.1681 45.4147L22.1758 45.4121L22.1834 45.4093L21.8438 44.4688ZM18.0312 46.5L17.45 45.6863L17.4375 45.6952L17.4252 45.7046L18.0312 46.5ZM18.3713 46.9146L15.8713 17.7583L13.8787 17.9292L16.3787 47.0854L18.3713 46.9146ZM13.8951 17.6445L8.5513 43.9257L10.5112 44.3243L15.8549 18.043L13.8951 17.6445ZM9.30525 43.1509C6.7407 43.7458 4.64521 44.0312 3 44.0312V46.0312C4.85479 46.0312 7.11347 45.7125 9.75725 45.0991L9.30525 43.1509ZM3 44.0312C2.01849 44.0312 1.36017 43.9733 0.973376 43.8846C0.77321 43.8388 0.727467 43.8022 0.754029 43.8205C0.803302 43.8544 1 44.0266 1 44.3438H-1C-1 44.8901 -0.678302 45.2628 -0.379029 45.4686C-0.102467 45.6587 0.22679 45.7654 0.526624 45.8341C1.13983 45.9746 1.98151 46.0312 3 46.0312V44.0312ZM1 44.3438V44.3125H-1V44.3438H1ZM0.961691 44.5866C3.56838 35.4422 5.46171 24.0202 6.65248 10.3367L4.66002 10.1633C3.47579 23.7715 1.59829 35.0578 -0.961691 44.0384L0.961691 44.5866ZM6.65246 10.337L7.27746 3.18076L5.28504 3.00674L4.66004 10.163L6.65246 10.337ZM6.55853 4.05454C9.64522 3.16375 12.3148 2.49434 14.5711 2.04308L14.1789 0.0819193C11.8518 0.547331 9.12561 1.23208 6.00397 2.13296L6.55853 4.05454ZM14.567 2.04389C15.5053 1.86031 17.2179 1.57119 19.7189 1.1752L19.4061 -0.800196C16.9071 -0.40452 15.1613 -0.110307 14.183 0.0811073L14.567 2.04389ZM18.568 0.292042L20.943 22.8858L22.932 22.6767L20.557 0.0829584L18.568 0.292042ZM22.9244 22.9426L23.4557 19.6926L21.4818 19.3699L20.9506 22.6199L22.9244 22.9426ZM23.4571 19.6833C23.7894 17.5232 24.1948 15.0391 24.6733 12.2305L22.7017 11.8945C22.2219 14.7109 21.8147 17.2059 21.4804 19.3792L23.4571 19.6833ZM24.6733 12.2302C25.2665 8.74408 25.7511 6.09953 26.1275 4.28956C26.3161 3.38249 26.4746 2.6999 26.6031 2.23119C26.6678 1.99512 26.72 1.83161 26.7591 1.72816C26.7684 1.70361 26.7759 1.68513 26.7817 1.6719C26.7875 1.65837 26.7903 1.65305 26.7897 1.65411C26.7896 1.6544 26.7828 1.66758 26.7688 1.68874C26.7561 1.70783 26.726 1.75071 26.6759 1.80086L25.2616 0.386643C25.1319 0.51634 25.0532 0.657964 25.0128 0.736272C24.9648 0.829142 24.9237 0.927366 24.8884 1.02087C24.8174 1.20843 24.7463 1.43977 24.6743 1.7024C24.5293 2.23109 24.3609 2.96126 24.1694 3.88232C23.7854 5.72859 23.296 8.40175 22.7017 11.8948L24.6733 12.2302ZM26.3749 2.00756C26.6046 1.90546 27.0108 1.80428 27.653 1.74589L27.472 -0.245893C26.7392 -0.179277 26.0829 -0.0512939 25.5626 0.179938L26.3749 2.00756ZM27.6279 1.74786L29.5342 1.62286L29.4033 -0.372857L27.4971 -0.247857L27.6279 1.74786ZM29.4688 1.625C30.1602 1.625 30.908 1.66454 31.713 1.74504L31.912 -0.245037C31.0503 -0.331203 30.2356 -0.375 29.4688 -0.375V1.625ZM31.6814 1.74137C34.1467 2.06736 36.0958 2.57012 37.5604 3.22532L38.3771 1.39968C36.675 0.63821 34.5199 0.0993049 31.9436 -0.24137L31.6814 1.74137ZM36.9716 2.38801L40.3154 46.5443L42.3096 46.3932L38.9659 2.23699L36.9716 2.38801ZM41.55 45.4974C38.8042 44.8262 35.2608 43.6168 30.9064 41.8543L30.1561 43.7082C34.5517 45.4874 38.1958 46.7363 41.075 47.4401L41.55 45.4974ZM31.5311 42.7968L31.6874 32.7343L29.6876 32.7032L29.5314 42.7657L31.5311 42.7968ZM31.6875 32.7188C31.6875 28.5344 31.5724 23.8215 31.3428 18.5812L29.3447 18.6688C29.5734 23.8869 29.6875 28.5698 29.6875 32.7188H31.6875ZM29.3706 18.3947C27.3915 26.759 25.8919 33.0623 24.8715 37.3052C24.3612 39.427 23.9712 41.0317 23.7013 42.1207C23.5661 42.6657 23.4619 43.0783 23.388 43.3607C23.3509 43.5026 23.3227 43.6067 23.3029 43.6764C23.2928 43.7118 23.2866 43.7322 23.2837 43.7414C23.2728 43.7754 23.2884 43.7185 23.3243 43.6465L25.1132 44.541C25.1569 44.4534 25.1841 44.3648 25.1885 44.3509C25.2008 44.3124 25.2137 44.2688 25.2264 44.2243C25.2521 44.1339 25.2845 44.0136 25.3229 43.8668C25.4001 43.5718 25.5068 43.1494 25.6425 42.602C25.9142 41.506 26.3055 39.8959 26.816 37.7729C27.8373 33.5263 29.3376 27.2201 31.3169 18.8553L29.3706 18.3947ZM24.3292 43.0999L24.0479 43.0686L23.8271 45.0564L24.1083 45.0876L24.3292 43.0999ZM23.9375 43.0625C23.1523 43.0625 22.3384 43.2269 21.5041 43.5282L22.1834 45.4093C22.8491 45.1689 23.431 45.0625 23.9375 45.0625V43.0625ZM21.5194 43.5228C20.7279 43.7942 19.9612 44.144 19.2198 44.5709L20.2177 46.3041C20.8513 45.9393 21.5013 45.6433 22.1681 45.4147L21.5194 43.5228ZM19.2198 44.5709C18.5159 44.9761 17.9233 45.3482 17.45 45.6863L18.6125 47.3137C19.0142 47.0268 19.5466 46.6905 20.2177 46.3041L19.2198 44.5709ZM17.4252 45.7046L16.769 46.2046L17.981 47.7954L18.6373 47.2954L17.4252 45.7046ZM58.0625 45V46H58.0757L58.0888 45.9997L58.0625 45ZM52.4688 44.0938L52.1016 45.024L52.1122 45.028L52.4688 44.0938ZM48.4375 41.7188L47.774 42.467L47.782 42.474L48.4375 41.7188ZM45.7812 38.5938L44.9209 39.1036L44.9252 39.1106L45.7812 38.5938ZM44.3125 35.3438L43.3482 35.6085L43.3513 35.6198L43.3547 35.6311L44.3125 35.3438ZM45.4062 24.7188L44.5003 24.2954L44.4971 24.3024L45.4062 24.7188ZM49.5312 19.2188L48.892 18.4498L48.8874 18.4536L49.5312 19.2188ZM55.3125 16.0625L55.6118 17.0167L55.6176 17.0148L55.3125 16.0625ZM73.25 21.25L72.4164 21.8026L72.4238 21.8133L73.25 21.25ZM73.6562 32.1562L73.7866 33.1477L74.271 33.084L74.5185 32.6628L73.6562 32.1562ZM54.875 34.625L54.7447 33.6335L53.5561 33.7898L53.923 34.931L54.875 34.625ZM56.875 37.5312L56.2482 38.3105L56.2587 38.3188L56.875 37.5312ZM63.5938 38.0938L64.0643 37.2114L63.6822 37.0076L63.2722 37.1469L63.5938 38.0938ZM68.2812 40.5938L69.0621 41.2184L69.8144 40.2781L68.7518 39.7114L68.2812 40.5938ZM59.25 44.9688L59.2763 45.9684L59.2999 45.9678L59.3235 45.966L59.25 44.9688ZM54.9688 29.8438L54.0253 29.5123L53.4437 31.1675L55.1643 30.8244L54.9688 29.8438ZM65.3125 27.7812L65.508 28.7619L66.6763 28.529L66.2445 27.4188L65.3125 27.7812ZM63.6875 26.0312L63.212 26.911L63.2218 26.9162L63.6875 26.0312ZM58.0625 44C56.0074 44 54.2689 43.7103 52.8253 43.1595L52.1122 45.028C53.8352 45.6855 55.8259 46 58.0625 46V44ZM52.8359 43.1636C51.3409 42.5735 50.0989 41.8366 49.093 40.9635L47.782 42.474C48.9845 43.5176 50.4299 44.364 52.1016 45.0239L52.8359 43.1636ZM49.101 40.9706C48.0616 40.0489 47.2449 39.0832 46.6373 38.0769L44.9252 39.1106C45.6509 40.3126 46.605 41.4303 47.774 42.4669L49.101 40.9706ZM46.6415 38.0839C46.0082 37.0153 45.5553 36.0064 45.2703 35.0564L43.3547 35.6311C43.6947 36.7644 44.2209 37.9222 44.921 39.1036L46.6415 38.0839ZM45.2768 35.079C44.9973 34.0607 44.875 33.2713 44.875 32.6875H42.875C42.875 33.5204 43.0444 34.5018 43.3482 35.6085L45.2768 35.079ZM44.875 32.6875C44.875 29.712 45.3678 27.2045 46.3154 25.1351L44.4971 24.3024C43.4031 26.6913 42.875 29.4963 42.875 32.6875H44.875ZM46.3122 25.1421C47.2987 23.031 48.5888 21.3187 50.1751 19.9839L48.8874 18.4536C47.057 19.9938 45.5971 21.9482 44.5003 24.2954L46.3122 25.1421ZM50.1705 19.9877C51.8005 18.6327 53.6124 17.6439 55.6118 17.0166L55.0132 15.1084C52.7626 15.8144 50.7203 16.9298 48.892 18.4498L50.1705 19.9877ZM55.6176 17.0148C57.6659 16.3586 59.7505 16.0312 61.875 16.0312V14.0312C59.5411 14.0312 57.2508 14.3914 55.0074 15.1102L55.6176 17.0148ZM61.875 16.0312C64.0138 16.0312 66.0106 16.5589 67.8818 17.6199L68.8682 15.8801C66.6977 14.6494 64.3612 14.0312 61.875 14.0312V16.0312ZM67.8818 17.6199C69.772 18.6917 71.2781 20.0853 72.4165 21.8025L74.0835 20.6975C72.7636 18.7064 71.0196 17.1 68.8682 15.8801L67.8818 17.6199ZM72.4238 21.8133C73.5683 23.492 74.125 25.256 74.125 27.125H76.125C76.125 24.8273 75.4317 22.6747 74.0762 20.6867L72.4238 21.8133ZM74.125 27.125C74.125 28.6098 73.6963 30.1139 72.794 31.6497L74.5185 32.6628C75.5745 30.8653 76.125 29.0152 76.125 27.125H74.125ZM73.5259 31.1648L54.7447 33.6335L55.0053 35.6165L73.7866 33.1477L73.5259 31.1648ZM53.923 34.931C54.358 36.2845 55.1381 37.4176 56.2482 38.3105L57.5018 36.752C56.6952 36.1033 56.142 35.2988 55.827 34.319L53.923 34.931ZM56.2587 38.3188C57.4308 39.236 58.8924 39.6562 60.5625 39.6562V37.6562C59.2326 37.6562 58.2359 37.3265 57.4913 36.7437L56.2587 38.3188ZM60.5625 39.6562C61.6137 39.6562 62.7344 39.4417 63.9153 39.0406L63.2722 37.1469C62.2447 37.4958 61.3447 37.6562 60.5625 37.6562V39.6562ZM63.1232 38.9761L67.8107 41.4761L68.7518 39.7114L64.0643 37.2114L63.1232 38.9761ZM67.5004 39.9691C66.6864 40.9865 65.5643 41.8832 64.1011 42.644L65.0239 44.4185C66.6857 43.5543 68.0428 42.4926 69.0621 41.2184L67.5004 39.9691ZM64.1011 42.644C62.6735 43.3864 61.0374 43.8343 59.1765 43.9715L59.3235 45.966C61.4209 45.8115 63.3265 45.3011 65.0239 44.4185L64.1011 42.644ZM59.2237 43.9691L58.0362 44.0003L58.0888 45.9997L59.2763 45.9684L59.2237 43.9691ZM55.1643 30.8244L65.508 28.7619L65.117 26.8006L54.7732 28.8631L55.1643 30.8244ZM66.2445 27.4188C65.8555 26.4186 65.1327 25.6618 64.1532 25.1463L63.2218 26.9162C63.8257 27.234 64.1861 27.6439 64.3805 28.1437L66.2445 27.4188ZM64.163 25.1515C63.2327 24.6487 62.2022 24.4062 61.0938 24.4062V26.4062C61.902 26.4062 62.6006 26.5805 63.212 26.911L64.163 25.1515ZM61.0938 24.4062C59.6795 24.4062 58.3146 24.8232 57.0123 25.614L58.0502 27.3235C59.0812 26.6976 60.0913 26.4062 61.0938 26.4062V24.4062ZM57.0123 25.614C55.6107 26.4649 54.6279 27.7971 54.0253 29.5123L55.9122 30.1752C56.3929 28.807 57.1184 27.8893 58.0502 27.3235L57.0123 25.614ZM75 44.3125L74.0395 44.0343L74 44.1706V44.3125H75ZM80.5312 12.0938L81.5267 12.189L81.5279 12.177L81.5287 12.165L80.5312 12.0938ZM80.625 11.2188L81.6149 11.3602L81.8043 10.0346L80.4795 10.2294L80.625 11.2188ZM71.0625 12.625L70.0692 12.5091L69.9182 13.804L71.208 13.6144L71.0625 12.625ZM72.1562 3.25L72.0492 2.25575L71.2555 2.34122L71.163 3.13412L72.1562 3.25ZM100.594 0.1875L101.586 0.308736L101.739 -0.941626L100.487 -0.806751L100.594 0.1875ZM99.5938 8.375L99.7411 9.36409L100.494 9.25194L100.586 8.49624L99.5938 8.375ZM90.7812 9.6875L90.6339 8.69841L89.926 8.80384L89.7975 9.50791L90.7812 9.6875ZM84.5 44.0938L84.7277 45.0675L85.366 44.9182L85.4837 44.2733L84.5 44.0938ZM78 44C77.0185 44 76.3602 43.942 75.9734 43.8534C75.7732 43.8075 75.7275 43.771 75.754 43.7892C75.8033 43.8231 76 43.9953 76 44.3125H74C74 44.8589 74.3217 45.2316 74.621 45.4373C74.8975 45.6275 75.2268 45.7341 75.5266 45.8029C76.1398 45.9434 76.9815 46 78 46V44ZM75.9605 44.5907C78.4216 36.0927 80.2734 25.2861 81.5267 12.189L79.5358 11.9985C78.2891 25.0264 76.4534 35.699 74.0395 44.0343L75.9605 44.5907ZM81.5287 12.165C81.5479 11.897 81.5766 11.6287 81.6149 11.3602L79.6351 11.0773C79.5901 11.3921 79.5563 11.7072 79.5338 12.0225L81.5287 12.165ZM80.4795 10.2294L70.917 11.6356L71.208 13.6144L80.7705 12.2081L80.4795 10.2294ZM72.0558 12.7409L73.1495 3.36588L71.163 3.13412L70.0692 12.5091L72.0558 12.7409ZM72.2633 4.24425L100.701 1.18175L100.487 -0.806751L72.0492 2.25575L72.2633 4.24425ZM99.6011 0.0662635L98.6011 8.25376L100.586 8.49624L101.586 0.308736L99.6011 0.0662635ZM99.4464 7.38591L90.6339 8.69841L90.9286 10.6766L99.7411 9.36409L99.4464 7.38591ZM89.7975 9.50791L83.5163 43.9142L85.4837 44.2733L91.765 9.86709L89.7975 9.50791ZM84.2723 43.12C81.7295 43.7147 79.6448 44 78 44V46C79.8552 46 82.1038 45.6811 84.7277 45.0675L84.2723 43.12ZM114.469 45L114.404 45.9979L115.319 46.0569L115.457 45.1511L114.469 45ZM105.75 44.4375L104.778 44.2029L104.499 45.3589L105.686 45.4354L105.75 44.4375ZM106.031 42.6562L107.029 42.7275L107.158 40.9196L105.56 41.7745L106.031 42.6562ZM100.375 44.0938L100.356 45.0936L100.365 45.0938H100.375V44.0938ZM95.2812 42.3438L94.5971 43.0731L94.5998 43.0756L95.2812 42.3438ZM94.5625 16.2812L94.4495 15.2877L93.7469 15.3675L93.5881 16.0566L94.5625 16.2812ZM103.906 15.2188L104.886 15.417L105.159 14.0699L103.793 14.2252L103.906 15.2188ZM103 35.6562L102.773 36.6303L102.804 36.6374L102.836 36.6426L103 35.6562ZM105.562 35.125L106.183 35.909L106.193 35.9013L106.203 35.8932L105.562 35.125ZM107.375 32.3125L106.421 32.0114L106.419 32.0182L106.417 32.0252L107.375 32.3125ZM107.562 31.7188L108.516 32.0199L108.542 31.9378L108.554 31.8526L107.562 31.7188ZM109.344 15.625L109.305 14.6257L108.42 14.66L108.347 15.5423L109.344 15.625ZM117.25 15.25L117.311 16.2481L117.312 16.2481L117.25 15.25ZM120.281 15.0625L121.251 15.3062L121.584 13.98L120.22 14.0644L120.281 15.0625ZM114.533 44.0021L105.814 43.4396L105.686 45.4354L114.404 45.9979L114.533 44.0021ZM106.722 44.6721C106.88 44.0176 106.983 43.3692 107.029 42.7275L105.034 42.585C104.996 43.1099 104.912 43.649 104.778 44.2029L106.722 44.6721ZM105.56 41.7745C103.909 42.6573 102.185 43.0938 100.375 43.0938V45.0938C102.523 45.0938 104.57 44.5718 106.503 43.538L105.56 41.7745ZM100.394 43.0939C98.3712 43.0554 96.9388 42.5207 95.9627 41.6119L94.5998 43.0756C96.0403 44.4168 98.0038 45.0488 100.356 45.0936L100.394 43.0939ZM95.9654 41.6144C94.2476 40.0029 93.25 37.07 93.25 32.5H91.25C91.25 37.2633 92.2732 40.893 94.5971 43.0731L95.9654 41.6144ZM93.25 32.5C93.25 28.4839 94.0027 23.1614 95.5369 16.5059L93.5881 16.0566C92.039 22.7761 91.25 28.2661 91.25 32.5H93.25ZM94.6755 17.2748L104.019 16.2123L103.793 14.2252L94.4495 15.2877L94.6755 17.2748ZM102.926 15.0205L102.364 17.8018L104.324 18.1982L104.886 15.417L102.926 15.0205ZM102.364 17.8018C101.984 19.6775 101.606 21.8829 101.23 24.4154L103.208 24.7096C103.581 22.2005 103.953 20.0308 104.324 18.1982L102.364 17.8018ZM101.23 24.4154C100.849 26.9724 100.656 29.2833 100.656 31.3438H102.656C102.656 29.4042 102.838 27.1943 103.208 24.7096L101.23 24.4154ZM100.656 31.3438C100.656 32.713 100.769 33.8574 101.037 34.7194C101.297 35.5516 101.8 36.4038 102.773 36.6303L103.227 34.6822C103.305 34.7004 103.136 34.7296 102.947 34.1244C102.768 33.5489 102.656 32.6412 102.656 31.3438H100.656ZM102.836 36.6426C103.129 36.6915 103.414 36.7188 103.688 36.7188V34.7188C103.545 34.7188 103.371 34.7043 103.164 34.6699L102.836 36.6426ZM103.688 36.7188C104.621 36.7188 105.477 36.4684 106.183 35.909L104.942 34.341C104.648 34.5733 104.254 34.7188 103.688 34.7188V36.7188ZM106.203 35.8932C106.788 35.4054 107.266 34.844 107.623 34.2074L105.877 33.2301C105.651 33.6351 105.337 34.0113 104.922 34.3568L106.203 35.8932ZM107.623 34.2074C107.938 33.6445 108.181 33.1069 108.333 32.5998L106.417 32.0252C106.319 32.3514 106.146 32.7513 105.877 33.2301L107.623 34.2074ZM108.329 32.6136L108.516 32.0199L106.609 31.4176L106.421 32.0114L108.329 32.6136ZM108.554 31.8526C109.326 26.1296 109.922 20.7478 110.34 15.7077L108.347 15.5423C107.932 20.5438 107.34 25.8912 106.571 31.5849L108.554 31.8526ZM109.382 16.6243C112.615 16.4991 115.259 16.3738 117.311 16.2481L117.189 14.2519C115.158 14.3762 112.53 14.5009 109.305 14.6257L109.382 16.6243ZM117.312 16.2481L120.343 16.0606L120.22 14.0644L117.188 14.2519L117.312 16.2481ZM119.311 14.8188C117.197 23.2329 115.254 33.2446 113.48 44.8489L115.457 45.1511C117.225 33.5888 119.157 23.6421 121.251 15.3062L119.311 14.8188ZM119.062 45L118.088 44.7766L117.789 46.0825L119.126 45.998L119.062 45ZM122.781 25.8438L121.795 25.6803L121.794 25.6828L122.781 25.8438ZM126.469 0.78125L126.408 -0.216877L125.587 -0.166596L125.478 0.647995L126.469 0.78125ZM136.156 0.1875L137.13 0.415226L137.436 -0.892806L136.095 -0.810627L136.156 0.1875ZM135.25 4.0625L134.276 3.83477L135.25 4.0625ZM133.469 13.875L132.479 13.7292L132.252 15.2731L133.75 14.8347L133.469 13.875ZM136.156 13.4062L136.129 12.4066L136.109 12.4071L136.09 12.4085L136.156 13.4062ZM137.312 13.375V12.375H137.299L137.285 12.3754L137.312 13.375ZM151.031 23.5312L150.064 23.7866L150.067 23.7976L150.07 23.8084L151.031 23.5312ZM149.969 34.5938L149.051 34.1959L149.05 34.1998L149.969 34.5938ZM145.938 40.375L145.268 39.6321L145.263 39.6363L145.938 40.375ZM140.281 43.7812L140.609 44.7262L140.617 44.7232L140.281 43.7812ZM129.75 44.4375L129.961 43.4599L129.84 43.434L129.717 43.438L129.75 44.4375ZM122.031 44.8125L122.094 45.8106L122.105 45.8098L122.031 44.8125ZM136.469 33.3125L136.143 32.367L136.138 32.3686L136.469 33.3125ZM140.156 23.2812L139.251 23.7052L139.254 23.713L139.258 23.7208L140.156 23.2812ZM138.094 20.9062L137.522 21.7264L137.532 21.7339L137.543 21.7412L138.094 20.9062ZM132.562 20.3125L132.291 19.3501L131.661 19.5279L131.572 20.177L132.562 20.3125ZM130.969 33.875L129.974 33.7764L129.877 34.7556L130.854 34.8684L130.969 33.875ZM120.037 45.2234C121.417 39.2005 122.661 32.7941 123.768 26.0047L121.794 25.6828C120.693 32.435 119.458 38.7995 118.088 44.7766L120.037 45.2234ZM123.768 26.0072C124.894 19.2089 125.791 13.3234 126.46 8.352L124.478 8.0855C123.813 13.0308 122.919 18.8953 121.795 25.6803L123.768 26.0072ZM126.46 8.352L127.46 0.914505L125.478 0.647995L124.478 8.0855L126.46 8.352ZM126.53 1.77938L136.217 1.18563L136.095 -0.810627L126.408 -0.216877L126.53 1.77938ZM135.183 -0.0402261L134.276 3.83477L136.224 4.29023L137.13 0.415226L135.183 -0.0402261ZM134.276 3.83477C133.663 6.45506 133.065 9.75565 132.479 13.7292L134.458 14.0208C135.039 10.0777 135.628 6.8366 136.224 4.29023L134.276 3.83477ZM133.75 14.8347C134.53 14.6063 135.354 14.462 136.223 14.404L136.09 12.4085C135.084 12.4755 134.116 12.6437 133.188 12.9153L133.75 14.8347ZM136.183 14.4059L137.34 14.3746L137.285 12.3754L136.129 12.4066L136.183 14.4059ZM137.312 14.375C139.361 14.375 141.091 14.6835 142.529 15.2697L143.284 13.4178C141.554 12.7123 139.556 12.375 137.312 12.375V14.375ZM142.529 15.2697C144.016 15.8764 145.254 16.649 146.259 17.578L147.616 16.1095C146.413 14.9968 144.963 14.1028 143.284 13.4178L142.529 15.2697ZM146.259 17.578C147.297 18.5377 148.115 19.5529 148.726 20.6211L150.462 19.6289C149.739 18.3638 148.787 17.1914 147.616 16.1095L146.259 17.578ZM148.726 20.6211C149.356 21.7251 149.798 22.78 150.064 23.7866L151.998 23.2759C151.681 22.0742 151.164 20.8582 150.462 19.6289L148.726 20.6211ZM150.07 23.8084C150.369 24.8421 150.5 25.6594 150.5 26.2812H152.5C152.5 25.4031 152.319 24.3871 151.992 23.2541L150.07 23.8084ZM150.5 26.2812C150.5 29.364 150.006 31.9938 149.051 34.1959L150.886 34.9916C151.973 32.4854 152.5 29.5735 152.5 26.2812H150.5ZM149.05 34.1998C148.1 36.4159 146.836 38.219 145.268 39.6322L146.607 41.1178C148.414 39.4893 149.838 37.4383 150.888 34.9877L149.05 34.1998ZM145.263 39.6363C143.694 41.0685 141.923 42.1344 139.946 42.8393L140.617 44.7232C142.848 43.9281 144.848 42.7232 146.612 41.1137L145.263 39.6363ZM139.954 42.8364C137.953 43.5297 135.918 43.875 133.844 43.875V45.875C136.145 45.875 138.401 45.4911 140.609 44.7261L139.954 42.8364ZM133.844 43.875C132.54 43.875 131.246 43.7368 129.961 43.4599L129.539 45.4151C130.962 45.7215 132.397 45.875 133.844 45.875V43.875ZM129.717 43.438C126.544 43.5424 123.956 43.668 121.958 43.8152L122.105 45.8098C124.065 45.6654 126.623 45.5409 129.783 45.437L129.717 43.438ZM121.968 43.8145L118.999 44.002L119.126 45.998L122.094 45.8105L121.968 43.8145ZM132.625 34.9688C134.051 34.9688 135.444 34.7307 136.799 34.2564L136.138 32.3686C134.994 32.7693 133.824 32.9688 132.625 32.9688V34.9688ZM136.794 34.258C138.259 33.7538 139.474 32.8605 140.423 31.6024L138.827 30.3976C138.11 31.3478 137.22 31.9962 136.143 32.367L136.794 34.258ZM140.423 31.6024C141.432 30.2657 141.875 28.4941 141.875 26.4062H139.875C139.875 28.2351 139.485 29.526 138.827 30.3976L140.423 31.6024ZM141.875 26.4062C141.875 25.1518 141.601 23.9595 141.054 22.8417L139.258 23.7208C139.669 24.5613 139.875 25.4524 139.875 26.4062H141.875ZM141.062 22.8573C140.524 21.7083 139.712 20.7754 138.644 20.0713L137.543 21.7412C138.308 22.2455 138.872 22.8959 139.251 23.7052L141.062 22.8573ZM138.666 20.0861C137.573 19.3239 136.271 18.9688 134.812 18.9688V20.9688C135.938 20.9688 136.822 21.2386 137.522 21.7264L138.666 20.0861ZM134.812 18.9688C134.015 18.9688 133.173 19.1014 132.291 19.3501L132.834 21.2749C133.577 21.0653 134.235 20.9688 134.812 20.9688V18.9688ZM131.572 20.177C130.966 24.6064 130.433 29.1396 129.974 33.7764L131.964 33.9736C132.421 29.3604 132.951 24.8519 133.553 20.448L131.572 20.177ZM130.854 34.8684C131.435 34.9354 132.025 34.9688 132.625 34.9688V32.9688C132.1 32.9688 131.586 32.9396 131.083 32.8816L130.854 34.8684ZM168.562 45V46H168.576L168.589 45.9997L168.562 45ZM162.969 44.0938L162.602 45.024L162.612 45.028L162.969 44.0938ZM158.938 41.7188L158.274 42.467L158.282 42.474L158.938 41.7188ZM156.281 38.5938L155.421 39.1036L155.425 39.1106L156.281 38.5938ZM154.812 35.3438L153.848 35.6085L153.851 35.6198L153.855 35.6311L154.812 35.3438ZM155.906 24.7188L155 24.2954L154.997 24.3024L155.906 24.7188ZM160.031 19.2188L159.392 18.4498L159.387 18.4536L160.031 19.2188ZM165.812 16.0625L166.112 17.0167L166.118 17.0148L165.812 16.0625ZM183.75 21.25L182.916 21.8026L182.924 21.8133L183.75 21.25ZM184.156 32.1562L184.287 33.1477L184.771 33.084L185.018 32.6628L184.156 32.1562ZM165.375 34.625L165.245 33.6335L164.056 33.7898L164.423 34.931L165.375 34.625ZM167.375 37.5312L166.748 38.3105L166.759 38.3188L167.375 37.5312ZM174.094 38.0938L174.564 37.2114L174.182 37.0076L173.772 37.1469L174.094 38.0938ZM178.781 40.5938L179.562 41.2184L180.314 40.2781L179.252 39.7114L178.781 40.5938ZM169.75 44.9688L169.776 45.9684L169.8 45.9678L169.823 45.966L169.75 44.9688ZM165.469 29.8438L164.525 29.5123L163.944 31.1675L165.664 30.8244L165.469 29.8438ZM175.812 27.7812L176.008 28.7619L177.176 28.529L176.745 27.4188L175.812 27.7812ZM174.188 26.0312L173.712 26.911L173.722 26.9162L174.188 26.0312ZM168.562 44C166.507 44 164.769 43.7103 163.325 43.1595L162.612 45.028C164.335 45.6855 166.326 46 168.562 46V44ZM163.336 43.1636C161.841 42.5735 160.599 41.8366 159.593 40.9635L158.282 42.474C159.484 43.5176 160.93 44.364 162.602 45.0239L163.336 43.1636ZM159.601 40.9706C158.562 40.0489 157.745 39.0832 157.137 38.0769L155.425 39.1106C156.151 40.3126 157.105 41.4303 158.274 42.4669L159.601 40.9706ZM157.142 38.0839C156.508 37.0153 156.055 36.0064 155.77 35.0564L153.855 35.6311C154.195 36.7644 154.721 37.9222 155.421 39.1036L157.142 38.0839ZM155.777 35.079C155.497 34.0607 155.375 33.2713 155.375 32.6875H153.375C153.375 33.5204 153.544 34.5018 153.848 35.6085L155.777 35.079ZM155.375 32.6875C155.375 29.712 155.868 27.2045 156.815 25.1351L154.997 24.3024C153.903 26.6913 153.375 29.4963 153.375 32.6875H155.375ZM156.812 25.1421C157.799 23.031 159.089 21.3187 160.675 19.9839L159.387 18.4536C157.557 19.9938 156.097 21.9482 155 24.2954L156.812 25.1421ZM160.671 19.9877C162.301 18.6327 164.112 17.6439 166.112 17.0166L165.513 15.1084C163.263 15.8144 161.22 16.9298 159.392 18.4498L160.671 19.9877ZM166.118 17.0148C168.166 16.3586 170.251 16.0312 172.375 16.0312V14.0312C170.041 14.0312 167.751 14.3914 165.507 15.1102L166.118 17.0148ZM172.375 16.0312C174.514 16.0312 176.511 16.5589 178.382 17.6199L179.368 15.8801C177.198 14.6494 174.861 14.0312 172.375 14.0312V16.0312ZM178.382 17.6199C180.272 18.6917 181.778 20.0853 182.917 21.8025L184.583 20.6975C183.264 18.7064 181.52 17.1 179.368 15.8801L178.382 17.6199ZM182.924 21.8133C184.068 23.492 184.625 25.256 184.625 27.125H186.625C186.625 24.8273 185.932 22.6747 184.576 20.6867L182.924 21.8133ZM184.625 27.125C184.625 28.6098 184.196 30.1139 183.294 31.6497L185.018 32.6628C186.075 30.8653 186.625 29.0152 186.625 27.125H184.625ZM184.026 31.1648L165.245 33.6335L165.505 35.6165L184.287 33.1477L184.026 31.1648ZM164.423 34.931C164.858 36.2845 165.638 37.4176 166.748 38.3105L168.002 36.752C167.195 36.1033 166.642 35.2988 166.327 34.319L164.423 34.931ZM166.759 38.3188C167.931 39.236 169.392 39.6562 171.062 39.6562V37.6562C169.733 37.6562 168.736 37.3265 167.991 36.7437L166.759 38.3188ZM171.062 39.6562C172.114 39.6562 173.234 39.4417 174.415 39.0406L173.772 37.1469C172.745 37.4958 171.845 37.6562 171.062 37.6562V39.6562ZM173.623 38.9761L178.311 41.4761L179.252 39.7114L174.564 37.2114L173.623 38.9761ZM178 39.9691C177.186 40.9865 176.064 41.8832 174.601 42.644L175.524 44.4185C177.186 43.5543 178.543 42.4926 179.562 41.2184L178 39.9691ZM174.601 42.644C173.174 43.3864 171.537 43.8343 169.677 43.9715L169.823 45.966C171.921 45.8115 173.826 45.3011 175.524 44.4185L174.601 42.644ZM169.724 43.9691L168.536 44.0003L168.589 45.9997L169.776 45.9684L169.724 43.9691ZM165.664 30.8244L176.008 28.7619L175.617 26.8006L165.273 28.8631L165.664 30.8244ZM176.745 27.4188C176.356 26.4186 175.633 25.6618 174.653 25.1463L173.722 26.9162C174.326 27.234 174.686 27.6439 174.88 28.1437L176.745 27.4188ZM174.663 25.1515C173.733 24.6487 172.702 24.4062 171.594 24.4062V26.4062C172.402 26.4062 173.101 26.5805 173.712 26.911L174.663 25.1515ZM171.594 24.4062C170.18 24.4062 168.815 24.8232 167.512 25.614L168.55 27.3235C169.581 26.6976 170.591 26.4062 171.594 26.4062V24.4062ZM167.512 25.614C166.111 26.4649 165.128 27.7971 164.525 29.5123L166.412 30.1752C166.893 28.807 167.618 27.8893 168.55 27.3235L167.512 25.614Z" fill="white"/>
</svg>
